<svg width="455" height="455" viewBox="0 0 455 455" fill="none" xmlns="http://www.w3.org/2000/svg">
<path d="M227.5 454.422C352.826 454.422 454.422 352.826 454.422 227.5C454.422 102.174 352.826 0.577637 227.5 0.577637C102.174 0.577637 0.577698 102.174 0.577698 227.5C0.577698 352.826 102.174 454.422 227.5 454.422Z" fill="#0087C4"/>
<path d="M227.542 447.137C348.821 447.137 447.137 348.821 447.137 227.542C447.137 106.264 348.821 7.94775 227.542 7.94775C106.264 7.94775 7.94775 106.264 7.94775 227.542C7.94775 348.821 106.264 447.137 227.542 447.137Z" fill="url(#paint0_radial)"/>
<path d="M227.542 67.5371C225.936 67.5371 224.584 66.1847 224.584 64.5788V19.4427C224.584 17.8368 225.936 16.4844 227.542 16.4844C229.148 16.4844 230.501 17.8368 230.501 19.4427V64.5788C230.501 66.1847 229.148 67.5371 227.542 67.5371Z" fill="#30B5F0"/>
<path d="M435.557 230.501H390.421C388.815 230.501 387.463 229.148 387.463 227.542C387.463 225.936 388.815 224.584 390.421 224.584H435.557C437.163 224.584 438.515 225.936 438.515 227.542C438.515 229.148 437.247 230.501 435.557 230.501Z" fill="#30B5F0"/>
<path d="M227.542 438.515C225.936 438.515 224.584 437.163 224.584 435.557V390.421C224.584 388.815 225.936 387.462 227.542 387.462C229.148 387.462 230.501 388.815 230.501 390.421V435.557C230.501 437.247 229.148 438.515 227.542 438.515Z" fill="#30B5F0"/>
<path d="M64.5792 230.501H19.4431C17.8371 230.501 16.4847 229.148 16.4847 227.542C16.4847 225.936 17.8371 224.584 19.4431 224.584H64.5792C66.1851 224.584 67.5375 225.936 67.5375 227.542C67.5375 229.148 66.1851 230.501 64.5792 230.501Z" fill="#30B5F0"/>
<path d="M325.844 71.2569C325.337 71.2569 324.745 71.0878 324.323 70.8342C322.97 69.989 322.463 68.1294 323.393 66.7771L334.381 48.9424C335.226 47.59 337.086 47.0829 338.438 48.0126C339.791 48.8579 340.298 50.7174 339.368 52.0698L328.38 69.9045C327.788 70.7497 326.859 71.2569 325.844 71.2569Z" fill="#30B5F0"/>
<path d="M389.407 136.509C388.392 136.509 387.378 136.002 386.871 135.072C386.026 133.635 386.533 131.86 387.97 131.015L406.058 120.534C407.495 119.689 409.27 120.196 410.115 121.633C410.96 123.07 410.453 124.845 409.016 125.69L390.928 136.171C390.421 136.425 389.914 136.509 389.407 136.509Z" fill="#30B5F0"/>
<path d="M404.536 339.875C404.029 339.875 403.438 339.706 403.015 339.453L385.18 328.464C383.828 327.619 383.321 325.76 384.251 324.407C385.096 323.055 386.955 322.548 388.308 323.477L406.142 334.466C407.495 335.311 408.002 337.17 407.072 338.523C406.48 339.368 405.551 339.875 404.536 339.875Z" fill="#30B5F0"/>
<path d="M331.93 410.453C330.916 410.453 329.901 409.946 329.394 409.017L318.913 390.928C318.068 389.491 318.575 387.716 320.012 386.871C321.449 386.026 323.224 386.533 324.069 387.97L334.55 406.058C335.395 407.495 334.888 409.27 333.451 410.115C332.944 410.284 332.437 410.453 331.93 410.453Z" fill="#30B5F0"/>
<path d="M118.083 407.495C117.576 407.495 116.984 407.326 116.562 407.072C115.209 406.227 114.702 404.368 115.632 403.015L126.62 385.181C127.465 383.828 129.325 383.321 130.677 384.251C132.03 385.096 132.537 386.956 131.607 388.308L120.619 406.143C120.112 406.988 119.097 407.495 118.083 407.495Z" fill="#30B5F0"/>
<path d="M47.5052 334.888C46.4909 334.888 45.4766 334.381 44.9695 333.451C44.1242 332.014 44.6314 330.239 46.0683 329.394L64.1565 318.913C65.5934 318.068 67.3685 318.575 68.2137 320.012C69.0589 321.449 68.5518 323.224 67.1149 324.069L49.0266 334.55C48.5195 334.804 48.0124 334.888 47.5052 334.888Z" fill="#30B5F0"/>
<path d="M68.2982 132.114C67.7911 132.114 67.1994 131.945 66.7768 131.692L48.9422 120.704C47.5898 119.858 47.0826 117.999 48.0124 116.646C48.8576 115.294 50.7172 114.787 52.0696 115.717L69.9042 126.705C71.2566 127.55 71.7637 129.41 70.834 130.762C70.2423 131.607 69.3125 132.114 68.2982 132.114Z" fill="#30B5F0"/>
<path d="M133.551 68.552C132.537 68.552 131.522 68.0449 131.015 67.1151L120.534 49.0269C119.689 47.59 120.196 45.815 121.633 44.9697C123.07 44.1245 124.845 44.6316 125.69 46.0685L136.171 64.1568C137.017 65.5937 136.509 67.3687 135.073 68.2139C134.565 68.4675 134.058 68.552 133.551 68.552Z" fill="#30B5F0"/>
<path d="M227.035 218.414L368.191 200.664L229.655 236.417C224.753 237.685 219.766 234.727 218.498 229.824C217.23 224.922 220.189 219.935 225.091 218.667C225.429 218.583 225.852 218.498 226.19 218.414H227.035Z" fill="#054C6C"/>
<path d="M219.428 224.668L286.371 24.0073L236.84 230.162C235.657 235.065 230.754 238.108 225.852 236.924C220.949 235.741 217.906 230.839 219.09 225.936C219.174 225.683 219.259 225.429 219.259 225.175L219.428 224.668Z" fill="#77C7F2"/>
<defs>
<radialGradient id="paint0_radial" cx="0" cy="0" r="1" gradientUnits="userSpaceOnUse" gradientTransform="translate(227.542 227.542) rotate(90) scale(219.595)">
<stop stop-color="#054C6C" stop-opacity="0"/>
<stop offset="1" stop-color="#054C6C"/>
</radialGradient>
</defs>
</svg>
