<svg width="114" height="114" viewBox="0 0 114 114" fill="none" xmlns="http://www.w3.org/2000/svg">
<g clip-path="url(#clip0)">
<path d="M112.2 56.6C112.2 87.307 87.307 112.2 56.6 112.2C25.893 112.2 1 87.307 1 56.6C1 25.893 25.893 1 56.6 1C87.307 1 112.2 25.893 112.2 56.6Z" fill="#054C6C" stroke="#0087C4" stroke-width="2"/>
<path d="M91.3 69.7L69 60.5C68 60.1 66.7 60.4 66 61.3L59 70.4C58 71.7 56.1 71.7 55.1 70.5L47.2 61.4C46.5 60.6 45.3 60.3 44.3 60.7L22.2 69.7C21.3 70.1 20.6 71 20.6 72V100.5C30.4 108.5 42.9 113.3 56.5 113.3C70.3 113.3 82.9 108.4 92.8 100.2V72C92.9 71 92.3 70.1 91.3 69.7Z" fill="#1A2124"/>
<path d="M56.9 63.4998C63.2221 63.4998 68.7054 58.9827 72.4475 53.4354C76.2468 47.8034 78.7 40.498 78.7 33.6998C78.7 26.7958 76.1631 21.3705 72.0379 17.6956C67.9551 14.0584 62.5048 12.2998 56.9 12.2998C51.2951 12.2998 45.8448 14.0584 41.762 17.6956C37.6369 21.3705 35.1 26.7958 35.1 33.6998C35.1 40.498 37.5532 47.8034 41.3525 53.4354C45.0946 58.9827 50.5779 63.4998 56.9 63.4998Z" fill="url(#paint0_radial)" stroke="#1A2124" stroke-width="5"/>
<path d="M45.7 58.2995L41.6 62.6996C41.2 63.0996 41.1 63.6995 41.4 64.1995L50.3 80.3996C50.7 81.1996 51.8 81.2995 52.4 80.6995L58.7 74.2996C59.2 73.7996 59.2 73.0995 58.8 72.5995L47.7 58.3996C47.2 57.6996 46.3 57.6995 45.7 58.2995Z" fill="#0087C4"/>
<path d="M68.3 58.2998L72.4 62.6998C72.8 63.0998 72.9 63.6998 72.6 64.1998L63.7 80.3998C63.3 81.1998 62.2 81.2998 61.6 80.6998L55.3 74.2998C54.8 73.7998 54.8 73.0998 55.2 72.5998L66.3 58.4998C66.8 57.6998 67.8 57.6998 68.3 58.2998Z" fill="#30B5F0"/>
</g>
<defs>
<radialGradient id="paint0_radial" cx="0" cy="0" r="1" gradientUnits="userSpaceOnUse" gradientTransform="translate(51.5 57) rotate(-56.8421) scale(44.794 37.4253)">
<stop stop-color="#054C6C"/>
<stop offset="1" stop-color="#30B5F0"/>
</radialGradient>
<clipPath id="clip0">
<rect width="113.3" height="113.3" fill="white"/>
</clipPath>
</defs>
</svg>
