<svg width="457" height="164" viewBox="0 0 457 164" fill="none" xmlns="http://www.w3.org/2000/svg">
<g clip-path="url(#clip0)">
<path d="M52.375 72.0197H12.767C5.73009 72.0197 0 66.3022 0 59.2808V19.7603C0 12.7389 5.73009 7.02148 12.767 7.02148H52.375C59.412 7.02148 65.1421 12.7389 65.1421 19.7603V59.2808C65.1421 66.3022 59.412 72.0197 52.375 72.0197Z" fill="url(#paint0_linear)"/>
<path d="M73.2848 0L40.7138 38.2165L24.4283 21.967L18.9998 32.8L35.8884 51.6575L39.809 56.5725L43.9307 51.7578L79.0149 5.41651L73.2848 0Z" fill="url(#paint1_linear)"/>
<path d="M146.871 72.0197H107.263C100.226 72.0197 94.4962 66.3022 94.4962 59.2808V19.7603C94.4962 12.7389 100.226 7.02148 107.263 7.02148H146.871C153.908 7.02148 159.638 12.7389 159.638 19.7603V59.2808C159.638 66.3022 153.908 72.0197 146.871 72.0197Z" fill="url(#paint2_linear)"/>
<path d="M167.781 0L135.21 38.2165L118.925 21.967L113.496 32.8L130.385 51.6575L134.305 56.5725L138.427 51.7578L173.511 5.41651L167.781 0Z" fill="url(#paint3_linear)"/>
<path d="M241.368 72.0197H201.76C194.723 72.0197 188.992 66.3022 188.992 59.2808V19.7603C188.992 12.7389 194.723 7.02148 201.76 7.02148H241.368C248.405 7.02148 254.135 12.7389 254.135 19.7603V59.2808C254.135 66.3022 248.405 72.0197 241.368 72.0197Z" fill="url(#paint4_linear)"/>
<path d="M262.277 0L229.706 38.2165L213.421 21.967L207.992 32.8L224.881 51.6575L228.802 56.5725L232.923 51.7578L268.008 5.41651L262.277 0Z" fill="url(#paint5_linear)"/>
<path d="M335.864 72.0197H296.256C289.219 72.0197 283.489 66.3022 283.489 59.2808V19.7603C283.489 12.7389 289.219 7.02148 296.256 7.02148H335.864C342.901 7.02148 348.631 12.7389 348.631 19.7603V59.2808C348.631 66.3022 342.901 72.0197 335.864 72.0197Z" fill="url(#paint6_linear)"/>
<path d="M356.774 0L324.203 38.2165L307.917 21.967L302.489 32.8L319.377 51.6575L323.298 56.5725L327.42 51.7578L362.504 5.41651L356.774 0Z" fill="url(#paint7_linear)"/>
<path d="M430.36 72.0197H390.752C383.715 72.0197 377.985 66.3022 377.985 59.2808V19.7603C377.985 12.7389 383.715 7.02148 390.752 7.02148H430.36C437.397 7.02148 443.127 12.7389 443.127 19.7603V59.2808C443.127 66.3022 437.397 72.0197 430.36 72.0197Z" fill="url(#paint8_linear)"/>
<path d="M451.27 0L418.699 38.2165L402.413 21.967L396.985 32.8L413.874 51.6575L417.794 56.5725L421.916 51.7578L457 5.41651L451.27 0Z" fill="url(#paint9_linear)"/>
<path d="M52.375 164H12.767C5.73009 164 0 158.283 0 151.261V111.741C0 104.719 5.73009 99.002 12.767 99.002H52.375C59.412 99.002 65.1421 104.719 65.1421 111.741V151.261C65.1421 158.383 59.412 164 52.375 164Z" fill="url(#paint10_linear)"/>
<path d="M73.2848 91.9805L40.7138 130.197L24.4283 114.048L18.9998 124.881L35.8884 143.638L39.809 148.553L43.9307 143.839L79.0149 97.397L73.2848 91.9805Z" fill="url(#paint11_linear)"/>
<path d="M146.871 164H107.263C100.226 164 94.4962 158.283 94.4962 151.261V111.741C94.4962 104.719 100.226 99.002 107.263 99.002H146.871C153.908 99.002 159.638 104.719 159.638 111.741V151.261C159.638 158.383 153.908 164 146.871 164Z" fill="url(#paint12_linear)"/>
<path d="M167.781 91.9805L135.21 130.197L118.925 114.048L113.496 124.881L130.385 143.638L134.305 148.553L138.427 143.839L173.511 97.397L167.781 91.9805Z" fill="url(#paint13_linear)"/>
<path d="M241.368 164H201.76C194.723 164 188.992 158.283 188.992 151.261V111.741C188.992 104.719 194.723 99.002 201.76 99.002H241.368C248.405 99.002 254.135 104.719 254.135 111.741V151.261C254.135 158.383 248.405 164 241.368 164Z" fill="url(#paint14_linear)"/>
<path d="M262.277 91.9805L229.706 130.197L213.421 114.048L207.992 124.881L224.881 143.638L228.802 148.553L232.923 143.839L268.008 97.397L262.277 91.9805Z" fill="url(#paint15_linear)"/>
<path d="M335.864 164H296.256C289.219 164 283.489 158.283 283.489 151.261V111.741C283.489 104.719 289.219 99.002 296.256 99.002H335.864C342.901 99.002 348.631 104.719 348.631 111.741V151.261C348.631 158.383 342.901 164 335.864 164Z" fill="url(#paint16_linear)"/>
<path d="M356.774 91.9805L324.203 130.197L307.917 114.048L302.489 124.881L319.377 143.638L323.298 148.553L327.42 143.839L362.504 97.397L356.774 91.9805Z" fill="url(#paint17_linear)"/>
<path d="M430.36 164H390.752C383.715 164 377.985 158.283 377.985 151.261V111.741C377.985 104.719 383.715 99.002 390.752 99.002H430.36C437.397 99.002 443.127 104.719 443.127 111.741V151.261C443.127 158.383 437.397 164 430.36 164Z" fill="url(#paint18_linear)"/>
<path d="M451.27 91.9805L418.699 130.197L402.413 114.048L396.985 124.881L413.874 143.638L417.794 148.553L421.916 143.839L457 97.397L451.27 91.9805Z" fill="url(#paint19_linear)"/>
</g>
<defs>
<linearGradient id="paint0_linear" x1="32.5711" y1="7.02148" x2="32.5711" y2="72.0197" gradientUnits="userSpaceOnUse">
<stop offset="0.244792" stop-color="#77C7F2" stop-opacity="0.3"/>
<stop offset="1" stop-color="#77C7F2"/>
</linearGradient>
<linearGradient id="paint1_linear" x1="49.0073" y1="0" x2="49.0073" y2="56.5725" gradientUnits="userSpaceOnUse">
<stop stop-color="#77C7F2"/>
<stop offset="1" stop-color="#0087C4"/>
</linearGradient>
<linearGradient id="paint2_linear" x1="127.067" y1="7.02148" x2="127.067" y2="72.0197" gradientUnits="userSpaceOnUse">
<stop offset="0.244792" stop-color="#77C7F2" stop-opacity="0.3"/>
<stop offset="1" stop-color="#77C7F2"/>
</linearGradient>
<linearGradient id="paint3_linear" x1="143.504" y1="0" x2="143.504" y2="56.5725" gradientUnits="userSpaceOnUse">
<stop stop-color="#77C7F2"/>
<stop offset="1" stop-color="#0087C4"/>
</linearGradient>
<linearGradient id="paint4_linear" x1="221.564" y1="7.02148" x2="221.564" y2="72.0197" gradientUnits="userSpaceOnUse">
<stop offset="0.244792" stop-color="#77C7F2" stop-opacity="0.3"/>
<stop offset="1" stop-color="#77C7F2"/>
</linearGradient>
<linearGradient id="paint5_linear" x1="238" y1="0" x2="238" y2="56.5725" gradientUnits="userSpaceOnUse">
<stop stop-color="#77C7F2"/>
<stop offset="1" stop-color="#0087C4"/>
</linearGradient>
<linearGradient id="paint6_linear" x1="316.06" y1="7.02148" x2="316.06" y2="72.0197" gradientUnits="userSpaceOnUse">
<stop offset="0.244792" stop-color="#77C7F2" stop-opacity="0.3"/>
<stop offset="1" stop-color="#77C7F2"/>
</linearGradient>
<linearGradient id="paint7_linear" x1="332.496" y1="0" x2="332.496" y2="56.5725" gradientUnits="userSpaceOnUse">
<stop stop-color="#77C7F2"/>
<stop offset="1" stop-color="#0087C4"/>
</linearGradient>
<linearGradient id="paint8_linear" x1="410.556" y1="7.02148" x2="410.556" y2="72.0197" gradientUnits="userSpaceOnUse">
<stop offset="0.244792" stop-color="#77C7F2" stop-opacity="0.3"/>
<stop offset="1" stop-color="#77C7F2"/>
</linearGradient>
<linearGradient id="paint9_linear" x1="426.992" y1="0" x2="426.992" y2="56.5725" gradientUnits="userSpaceOnUse">
<stop stop-color="#77C7F2"/>
<stop offset="1" stop-color="#0087C4"/>
</linearGradient>
<linearGradient id="paint10_linear" x1="32.5711" y1="99.002" x2="32.5711" y2="164" gradientUnits="userSpaceOnUse">
<stop offset="0.244792" stop-color="#77C7F2" stop-opacity="0.3"/>
<stop offset="1" stop-color="#77C7F2"/>
</linearGradient>
<linearGradient id="paint11_linear" x1="49.0073" y1="91.9805" x2="49.0073" y2="148.553" gradientUnits="userSpaceOnUse">
<stop stop-color="#77C7F2"/>
<stop offset="1" stop-color="#0087C4"/>
</linearGradient>
<linearGradient id="paint12_linear" x1="127.067" y1="99.002" x2="127.067" y2="164" gradientUnits="userSpaceOnUse">
<stop offset="0.244792" stop-color="#77C7F2" stop-opacity="0.3"/>
<stop offset="1" stop-color="#77C7F2"/>
</linearGradient>
<linearGradient id="paint13_linear" x1="143.504" y1="91.9805" x2="143.504" y2="148.553" gradientUnits="userSpaceOnUse">
<stop stop-color="#77C7F2"/>
<stop offset="1" stop-color="#0087C4"/>
</linearGradient>
<linearGradient id="paint14_linear" x1="221.564" y1="99.002" x2="221.564" y2="164" gradientUnits="userSpaceOnUse">
<stop offset="0.244792" stop-color="#77C7F2" stop-opacity="0.3"/>
<stop offset="1" stop-color="#77C7F2"/>
</linearGradient>
<linearGradient id="paint15_linear" x1="238" y1="91.9805" x2="238" y2="148.553" gradientUnits="userSpaceOnUse">
<stop stop-color="#77C7F2"/>
<stop offset="1" stop-color="#0087C4"/>
</linearGradient>
<linearGradient id="paint16_linear" x1="316.06" y1="99.002" x2="316.06" y2="164" gradientUnits="userSpaceOnUse">
<stop offset="0.244792" stop-color="#77C7F2" stop-opacity="0.3"/>
<stop offset="1" stop-color="#77C7F2"/>
</linearGradient>
<linearGradient id="paint17_linear" x1="332.496" y1="91.9805" x2="332.496" y2="148.553" gradientUnits="userSpaceOnUse">
<stop stop-color="#77C7F2"/>
<stop offset="1" stop-color="#0087C4"/>
</linearGradient>
<linearGradient id="paint18_linear" x1="410.556" y1="99.002" x2="410.556" y2="164" gradientUnits="userSpaceOnUse">
<stop offset="0.244792" stop-color="#77C7F2" stop-opacity="0.3"/>
<stop offset="1" stop-color="#77C7F2"/>
</linearGradient>
<linearGradient id="paint19_linear" x1="426.992" y1="91.9805" x2="426.992" y2="148.553" gradientUnits="userSpaceOnUse">
<stop stop-color="#77C7F2"/>
<stop offset="1" stop-color="#0087C4"/>
</linearGradient>
<clipPath id="clip0">
<rect width="457" height="164" fill="white"/>
</clipPath>
</defs>
</svg>
