<svg width="901" height="655" viewBox="0 0 901 655" fill="none" xmlns="http://www.w3.org/2000/svg">
<circle cx="277.5" cy="290.554" r="276.5" stroke="#77C7F2" stroke-opacity="0.3" stroke-width="2"/>
<circle cx="277.5" cy="290.554" r="248.5" stroke="#77C7F2" stroke-opacity="0.09" stroke-width="2"/>
<path d="M602.891 258.872C614.356 404.221 597.407 510.794 478.268 622.369C403.494 692.167 307.284 617.866 362.617 526.054C417.95 434.241 434.4 287.391 427.92 267.378" stroke="#0087C4" stroke-opacity="0.19" stroke-width="9" stroke-miterlimit="10"/>
<path d="M291.608 137.602C372.337 123.294 405.551 103.446 454.912 31.4403C488.126 -17.4866 569.317 -5.48569 597.918 41.1333C617.293 72.5204 631.133 114.985 704.943 147.295C778.752 179.606 582.234 294.999 582.234 294.999C582.234 294.999 568.856 199.453 516.266 175.452C516.266 175.452 442.456 206.377 438.766 304.231C376.028 243.303 291.608 137.602 291.608 137.602Z" fill="url(#paint0_linear)"/>
<path d="M521.205 156.462C555.136 156.462 582.642 128.951 582.642 95.0155C582.642 61.0797 555.136 33.5693 521.205 33.5693C487.274 33.5693 459.768 61.0797 459.768 95.0155C459.768 128.951 487.274 156.462 521.205 156.462Z" fill="#77C7F2"/>
<path d="M279.614 454.244C367.766 454.244 439.227 382.741 439.227 294.539C439.227 206.336 367.766 134.834 279.614 134.834C191.461 134.834 120 206.336 120 294.539C120 382.741 191.461 454.244 279.614 454.244Z" fill="url(#paint1_linear)"/>
<path d="M279.614 445.934C363.18 445.934 430.924 378.152 430.924 294.538C430.924 210.924 363.18 143.142 279.614 143.142C196.048 143.142 128.304 210.924 128.304 294.538C128.304 378.152 196.048 445.934 279.614 445.934Z" fill="#054C6C"/>
<path d="M279.614 429.78C354.263 429.78 414.778 369.23 414.778 294.538C414.778 219.846 354.263 159.297 279.614 159.297C204.965 159.297 144.45 219.846 144.45 294.538C144.45 369.23 204.965 429.78 279.614 429.78Z" fill="#0087C4"/>
<path d="M279.614 425.626C351.97 425.626 410.626 366.937 410.626 294.539C410.626 222.142 351.97 163.452 279.614 163.452C207.257 163.452 148.601 222.142 148.601 294.539C148.601 366.937 207.257 425.626 279.614 425.626Z" fill="#1A2124"/>
<path d="M279.614 420.085C348.913 420.085 405.09 363.875 405.09 294.537C405.09 225.198 348.913 168.988 279.614 168.988C210.315 168.988 154.137 225.198 154.137 294.537C154.137 363.875 210.315 420.085 279.614 420.085Z" fill="url(#paint2_radial)"/>
<path d="M741.386 454.244C829.538 454.244 901 382.741 901 294.539C901 206.336 829.538 134.834 741.386 134.834C653.234 134.834 581.772 206.336 581.772 294.539C581.772 382.741 653.234 454.244 741.386 454.244Z" fill="url(#paint3_linear)"/>
<path d="M741.386 445.934C824.953 445.934 892.697 378.152 892.697 294.538C892.697 210.924 824.953 143.142 741.386 143.142C657.82 143.142 590.076 210.924 590.076 294.538C590.076 378.152 657.82 445.934 741.386 445.934Z" fill="#054C6C"/>
<path d="M741.386 429.78C816.035 429.78 876.551 369.23 876.551 294.538C876.551 219.846 816.035 159.297 741.386 159.297C666.737 159.297 606.222 219.846 606.222 294.538C606.222 369.23 666.737 429.78 741.386 429.78Z" fill="#0087C4"/>
<path d="M741.386 425.626C813.743 425.626 872.399 366.937 872.399 294.539C872.399 222.142 813.743 163.452 741.386 163.452C669.03 163.452 610.374 222.142 610.374 294.539C610.374 366.937 669.03 425.626 741.386 425.626Z" fill="#1A2124"/>
<path d="M741.386 420.085C810.685 420.085 866.863 363.875 866.863 294.537C866.863 225.198 810.685 168.988 741.386 168.988C672.087 168.988 615.91 225.198 615.91 294.537C615.91 363.875 672.087 420.085 741.386 420.085Z" fill="url(#paint4_radial)"/>
<path d="M521.205 151.807C552.051 151.807 577.057 126.59 577.057 95.4819C577.057 64.3741 552.051 39.1562 521.205 39.1562C490.359 39.1562 465.353 64.3741 465.353 95.4819C465.353 126.59 490.359 151.807 521.205 151.807Z" fill="url(#paint5_radial)"/>
<defs>
<linearGradient id="paint0_linear" x1="506.566" y1="0" x2="506.566" y2="304.231" gradientUnits="userSpaceOnUse">
<stop stop-color="#0087C4"/>
<stop offset="1" stop-color="#0087C4" stop-opacity="0"/>
</linearGradient>
<linearGradient id="paint1_linear" x1="279.614" y1="134.834" x2="279.614" y2="454.244" gradientUnits="userSpaceOnUse">
<stop stop-color="#0087C4"/>
<stop offset="1" stop-color="#0087C4" stop-opacity="0"/>
</linearGradient>
<radialGradient id="paint2_radial" cx="0" cy="0" r="1" gradientUnits="userSpaceOnUse" gradientTransform="translate(312.69 242.114) rotate(119.817) scale(175.98 175.892)">
<stop stop-color="#054C6C"/>
<stop offset="1" stop-color="#1A2124"/>
</radialGradient>
<linearGradient id="paint3_linear" x1="741.386" y1="134.834" x2="741.386" y2="454.244" gradientUnits="userSpaceOnUse">
<stop stop-color="#0087C4"/>
<stop offset="1" stop-color="#0087C4" stop-opacity="0"/>
</linearGradient>
<radialGradient id="paint4_radial" cx="0" cy="0" r="1" gradientUnits="userSpaceOnUse" gradientTransform="translate(800.466 247.7) rotate(125.038) scale(175.109 175.026)">
<stop stop-color="#054C6C"/>
<stop offset="1" stop-color="#1A2124"/>
</radialGradient>
<radialGradient id="paint5_radial" cx="0" cy="0" r="1" gradientUnits="userSpaceOnUse" gradientTransform="translate(557.509 66.1553) rotate(131.89) scale(85.0426 84.3384)">
<stop stop-color="#054C6C"/>
<stop offset="1" stop-color="#1A2124"/>
</radialGradient>
</defs>
</svg>
