<svg width="114" height="114" viewBox="0 0 114 114" fill="none" xmlns="http://www.w3.org/2000/svg">
<g clip-path="url(#clip0)">
<path d="M112.2 56.6C112.2 87.307 87.307 112.2 56.6 112.2C25.893 112.2 1 87.307 1 56.6C1 25.893 25.893 1 56.6 1C87.307 1 112.2 25.893 112.2 56.6Z" fill="#054C6C" stroke="#0087C4" stroke-width="2"/>
<path d="M23.3 108.1C27 110.4 31.1 112.2 35.3 113.6L53.5 78L41.8 72L23.3 108.1Z" fill="#1A2124"/>
<path d="M79.4 12.9998C60.9 3.49977 38.1 10.7998 28.5 29.3998C18.9 47.9998 26.4 70.7998 45 80.2998C63.6 89.7998 86.4 82.4998 95.9 63.8998C105.4 45.2998 98 22.4998 79.4 12.9998ZM49.7 70.9998C36.3 64.0998 31 47.5998 37.9 34.1998C44.8 20.7998 61.3 15.4998 74.7 22.2998C88.1 29.1998 93.4 45.6998 86.6 59.0998C79.8 72.4998 63.2 77.8998 49.7 70.9998Z" fill="#1A2124"/>
<path d="M83.7411 63.4933C93.0303 51.6168 90.9329 34.4587 79.0564 25.1695C67.18 15.8803 50.0218 17.9777 40.7327 29.8542C31.4435 41.7306 33.5409 58.8888 45.4174 68.1779C57.2938 77.4671 74.4519 75.3697 83.7411 63.4933Z" fill="url(#paint0_radial)"/>
</g>
<defs>
<radialGradient id="paint0_radial" cx="0" cy="0" r="1" gradientUnits="userSpaceOnUse" gradientTransform="translate(73.5 30.5) rotate(117.897) scale(38.4708)">
<stop stop-color="#30B5F0"/>
<stop offset="1" stop-color="#054C6C"/>
</radialGradient>
<clipPath id="clip0">
<rect width="113.3" height="113.3" fill="white"/>
</clipPath>
</defs>
</svg>
