<svg width="319" height="59" viewBox="0 0 319 59" fill="none" xmlns="http://www.w3.org/2000/svg">
<g clip-path="url(#clip0)">
<path d="M97.754 18.0974C97.754 12.7108 97.754 7.3495 97.754 1.96298C97.754 1.78678 97.754 1.58542 97.754 1.40922C97.7292 1.00649 97.9272 0.855469 98.3232 0.855469C99.1398 0.855469 99.9813 0.855469 100.798 0.855469C102.827 0.855469 104.881 0.855469 106.911 0.855469C107.727 0.855469 107.802 0.930981 107.802 1.76161C107.802 12.0061 107.802 22.2253 107.777 32.4698C107.777 33.8794 107.727 35.3393 107.455 36.7236C106.836 39.7945 105.228 42.2108 102.407 43.6707C100.427 44.7027 98.2737 45.0048 96.0464 44.9041C94.4625 44.8286 92.9281 44.5769 91.468 43.998C88.721 42.8905 86.6917 41.053 85.677 38.1332C85.1326 36.5726 85.0583 34.9869 85.0583 33.3759C85.0088 22.9301 84.9841 12.4843 84.9346 2.03849C84.9346 0.855469 84.9346 0.855469 86.1225 0.855469C88.7457 0.855469 91.369 0.855469 93.9675 0.855469C94.9327 0.855469 94.9327 0.855469 94.9327 1.83712C94.9327 12.4591 94.9327 23.056 94.9327 33.678C94.9327 34.6345 95.0812 35.591 95.1802 36.5474C95.2297 37.076 95.7494 37.5039 96.2196 37.5291C96.7145 37.5543 97.2837 37.2019 97.3827 36.6733C97.5312 35.8427 97.6797 34.9869 97.6797 34.1311C97.7787 28.7697 97.754 23.4335 97.754 18.0974Z" fill="#054C6C"/>
<path d="M37.5671 18.4495C37.5671 12.9623 37.5671 7.47513 37.5671 1.98793C37.5671 1.81173 37.5671 1.66071 37.5671 1.48452C37.5918 0.90559 37.6413 0.830078 38.2105 0.830078C41.0813 0.830078 43.952 0.830078 46.798 0.830078C47.5157 0.830078 47.6147 0.930761 47.6147 1.68588C47.6147 12.2072 47.6395 22.7537 47.59 33.275C47.59 34.7098 47.3425 36.1445 47.095 37.5541C46.8723 38.8629 46.1546 39.9956 45.3627 41.0528C43.8035 43.1168 41.7 44.1991 39.2252 44.6522C37.2206 45.0297 35.2408 44.9794 33.2857 44.5263C30.4149 43.8719 27.9649 42.5378 26.4058 39.8949C25.4406 38.2337 24.9952 36.4214 24.9952 34.5084C24.9704 32.5954 24.9457 30.7076 24.9457 28.7947C24.8962 19.8339 24.8714 10.8732 24.8467 1.93759C24.8467 1.88725 24.8467 1.81173 24.8467 1.76139C24.8467 0.930761 24.9209 0.855249 25.7129 0.855249C28.0392 0.855249 30.3655 0.855249 32.6918 0.855249C33.2115 0.855249 33.7312 0.855249 34.2261 0.855249C34.6221 0.855249 34.7953 1.03144 34.7953 1.409C34.7953 1.61037 34.7953 1.8369 34.7953 2.03827C34.7953 12.2576 34.7953 22.4768 34.7953 32.6709C34.7953 33.8791 34.9438 35.0873 35.0428 36.2955C35.117 37.0003 35.5378 37.4534 36.107 37.5037C36.7009 37.5541 37.1711 37.2268 37.3196 36.5221C37.4681 35.8928 37.5423 35.2384 37.5423 34.6091C37.5671 29.2226 37.5671 23.8361 37.5671 18.4495Z" fill="#054C6C"/>
<path d="M117.305 22.4519C117.305 15.6055 117.305 8.75905 117.305 1.91264C117.305 1.73644 117.305 1.53508 117.305 1.35888C117.305 1.03166 117.453 0.855469 117.8 0.855469C121.314 0.855469 124.853 0.855469 128.367 0.880639C129.208 0.880639 130.05 0.981322 130.891 1.03166C132.327 1.13235 133.762 1.23303 135.098 1.88747C136.658 2.64258 137.722 3.87595 138.415 5.43653C138.984 6.69506 139.281 8.05427 139.355 9.43866C139.429 10.7224 139.479 11.9809 139.504 13.2646C139.528 14.8252 139.429 16.4109 139.033 17.9212C138.662 19.3559 137.87 20.4382 136.435 20.9416C136.039 21.0675 135.643 21.1682 135.247 21.294C135.123 21.3444 135.024 21.4199 134.9 21.4954C134.999 21.5961 135.098 21.7471 135.247 21.8226C135.692 22.0492 136.163 22.2002 136.583 22.4519C138.439 23.5594 139.355 25.271 139.405 27.4105C139.479 32.6712 139.479 37.9067 139.528 43.1673C139.528 44.0231 139.504 44.0483 138.662 44.0483C136.138 44.0483 133.638 44.0483 131.114 44.0483C130.223 44.0483 130.223 44.0483 130.223 43.1673C130.223 38.2339 130.248 33.2753 130.198 28.3418C130.198 27.5364 130.025 26.7309 129.926 25.9254C129.827 25.2962 129.382 24.9438 128.837 24.7928C127.476 24.4152 127.352 24.5159 127.352 25.9254C127.352 31.614 127.352 37.3026 127.352 43.0163C127.352 43.2177 127.402 43.4442 127.328 43.6456C127.278 43.7966 127.105 43.9728 126.956 44.0483C126.833 44.1238 126.635 44.0735 126.461 44.0735C123.665 44.0735 120.844 44.0735 118.047 44.0735C117.305 44.0735 117.305 44.0735 117.305 43.2932C117.305 36.2957 117.305 29.3738 117.305 22.4519ZM130.198 12.9626C130.174 12.1319 130.273 11.2761 130.149 10.4455C129.976 9.0611 129.53 8.48218 128.095 8.33115C127.402 8.25564 127.328 8.33115 127.328 9.08627C127.328 11.5782 127.328 14.0701 127.328 16.562C127.328 17.7701 127.526 17.9212 128.689 17.594C128.936 17.5184 129.184 17.4429 129.357 17.2919C129.555 17.1409 129.778 16.9143 129.852 16.6878C130 16.1341 130.124 15.5551 130.174 14.9762C130.248 14.3218 130.198 13.6422 130.198 12.9626Z" fill="#054C6C"/>
<path d="M255.918 0.830199C257.996 0.830199 260.075 0.830199 262.154 0.830199C262.352 0.830199 262.599 0.805029 262.773 0.88054C262.946 0.956052 263.169 1.15742 263.193 1.33361C263.441 2.9697 263.639 4.6058 263.862 6.24189C264.035 7.50042 264.233 8.75895 264.406 10.0175C264.555 11.0243 264.678 12.0563 264.802 13.0631C264.975 14.372 265.148 15.6809 265.322 16.9646C265.569 18.9279 265.817 20.8912 266.089 22.8797C266.237 23.9872 266.411 25.1199 266.559 26.2274C266.732 27.4104 266.881 28.5934 267.029 29.7764C267.178 30.9595 267.326 32.1425 267.5 33.3255C267.623 34.2568 267.772 35.1881 267.895 36.1194C268.168 38.1583 268.39 40.1719 268.663 42.2107C268.712 42.538 268.786 42.8652 268.836 43.1924C268.96 43.9475 268.91 43.9979 268.192 43.9979C267.722 43.9979 267.252 43.9979 266.782 43.9979C264.381 43.9979 261.956 43.9979 259.555 43.9979C258.764 43.9979 258.739 43.9979 258.689 43.1672C258.541 41.0529 258.368 38.9134 258.244 36.7991C258.219 36.3963 258.095 36.2453 257.699 36.2705C256.907 36.2956 256.091 36.2956 255.299 36.2705C254.853 36.2453 254.705 36.4467 254.68 36.8494C254.606 38.0576 254.532 39.2658 254.433 40.474C254.358 41.4808 254.259 42.4625 254.185 43.4693C254.16 43.8972 253.962 44.023 253.566 44.023C250.547 44.023 247.503 44.023 244.484 44.023C243.841 44.023 243.791 43.9223 243.89 43.2679C244.063 41.808 244.237 40.3229 244.41 38.8379C244.657 36.6732 244.929 34.5337 245.177 32.369C245.35 30.884 245.523 29.3737 245.697 27.8886C245.87 26.3532 246.068 24.8178 246.266 23.2824C246.637 20.1361 246.984 16.9646 247.33 13.8183C247.627 11.2508 247.924 8.68344 248.221 6.09086C248.419 4.50511 248.617 2.94453 248.79 1.35878C248.84 0.905711 249.112 0.85537 249.483 0.85537C251.562 0.85537 253.74 0.830199 255.918 0.830199ZM256.487 12.2577C256.412 12.2577 256.338 12.2577 256.264 12.2577C256.165 13.0631 256.041 13.8434 255.967 14.6489C255.744 16.5115 255.546 18.3741 255.348 20.2619C255.2 21.7973 255.051 23.3328 254.903 24.8682C254.804 25.9002 254.73 26.9573 254.655 27.9893C254.631 28.3921 254.779 28.5683 255.175 28.5431C255.843 28.5179 256.487 28.5431 257.155 28.5431C257.848 28.5431 257.873 28.5431 257.798 27.8383C257.625 26.0008 257.427 24.1886 257.254 22.3511C257.006 19.2803 256.784 16.1843 256.536 13.1135C256.536 12.8366 256.511 12.5597 256.487 12.2577Z" fill="#054C6C"/>
<path d="M193.38 28.5183C194.692 28.5183 196.028 28.5183 197.34 28.5183C197.958 28.5183 197.983 28.5434 198.008 29.1979C198.033 31.136 198.033 33.0993 198.057 35.0375C198.082 35.5661 198.181 36.1198 198.329 36.6232C198.503 37.1518 198.948 37.4287 199.517 37.479C200.186 37.5294 200.705 37.2777 201.002 36.6987C201.225 36.296 201.398 35.7926 201.423 35.3395C201.497 33.6531 201.621 31.9667 201.151 30.2802C200.978 29.6761 200.755 29.1224 200.285 28.7196C198.824 27.4863 197.315 26.2781 195.83 25.0447C194.296 23.761 192.712 22.5277 191.202 21.1936C190.138 20.2623 189.593 18.9786 189.148 17.6949C188.653 16.2853 188.529 14.8254 188.43 13.3152C188.307 11.6539 188.455 10.0178 188.579 8.38176C188.678 7.02254 189 5.66333 189.692 4.42997C190.608 2.79387 191.969 1.71153 193.627 0.956415C195.162 0.251637 196.795 -0.0755812 198.478 -0.0504105C199.394 -0.0252399 200.285 -0.0755812 201.2 -6.92308e-05C203.576 0.226467 205.779 0.981586 207.635 2.56734C208.724 3.47348 209.392 4.63133 209.689 6.04089C210.233 8.45727 210.233 10.8988 210.208 13.3404C210.208 13.8438 210.06 13.9445 209.491 13.9445C208.229 13.9445 206.966 13.9445 205.729 13.9445C204.368 13.9445 203.007 13.9445 201.646 13.9445C200.953 13.9445 200.854 13.8438 200.854 13.139C200.829 11.6288 200.854 10.1185 200.78 8.63346C200.73 7.62664 200.037 7.14839 199.072 7.37493C198.453 7.50078 198.181 8.0042 198.033 8.50761C197.587 10.194 197.637 11.9056 198.23 13.5417C198.527 14.3472 199.121 14.901 199.765 15.3792C200.928 16.235 202.116 17.0656 203.279 17.9214C205.284 19.4065 207.239 20.9167 208.798 22.8801C209.788 24.1134 210.233 25.5733 210.555 27.1087C211.05 29.5251 211.075 31.9667 211 34.4082C210.951 36.0946 210.827 37.8062 210.208 39.392C209.862 40.2981 209.342 41.1036 208.625 41.758C206.942 43.2934 204.962 44.1744 202.735 44.5771C200.705 44.9547 198.676 44.9044 196.671 44.4765C194.147 43.9227 191.969 42.7145 190.41 40.5498C189.668 39.5178 189.321 38.3097 189.074 37.0763C188.777 35.6416 188.703 34.1817 188.703 32.6966C188.703 31.5388 188.628 30.3557 188.628 29.1979C188.628 28.4931 188.678 28.4428 189.346 28.4428C190.732 28.5183 192.044 28.5183 193.38 28.5183Z" fill="#054C6C"/>
<path d="M149.056 22.4267C149.056 15.6558 149.056 8.85974 149.056 2.08883C149.056 1.91264 149.056 1.76161 149.056 1.58542C149.081 0.930981 149.131 0.855469 149.774 0.855469C154.798 0.855469 159.822 0.855469 164.87 0.855469C165.514 0.855469 165.588 0.930981 165.588 1.58542C165.588 4.0018 165.588 6.44335 165.588 8.85974C165.588 9.58969 165.538 9.61485 164.796 9.61485C163.138 9.61485 161.505 9.61485 159.846 9.61485C159.129 9.61485 159.054 9.6652 159.054 10.3951C159.054 12.5598 159.054 14.7497 159.054 16.9143C159.054 17.6191 159.104 17.6443 159.797 17.6443C161.356 17.6443 162.94 17.6443 164.499 17.6443C165.192 17.6443 165.192 17.6443 165.192 18.3239C165.192 20.5893 165.192 22.8546 165.192 25.0948C165.192 25.9254 165.192 25.9254 164.351 25.9254C162.816 25.9254 161.307 25.9254 159.772 25.9254C159.104 25.9254 159.03 26.0009 159.03 26.6806C159.03 29.2983 159.03 31.9161 159.03 34.5338C159.03 35.2386 159.054 35.2638 159.772 35.2638C161.678 35.2638 163.608 35.2638 165.514 35.2638C166.207 35.2638 166.256 35.3141 166.256 35.9937C166.256 38.4101 166.256 40.8013 166.256 43.2177C166.256 43.8973 166.182 43.9728 165.514 43.9728C160.267 43.9728 154.996 43.9728 149.749 43.9728C149.032 43.9728 149.007 43.9476 149.007 43.1673C149.007 36.3713 149.007 29.5752 149.007 22.7539C149.056 22.6784 149.056 22.5526 149.056 22.4267Z" fill="#054C6C"/>
<path d="M301.602 22.4772C301.602 15.6308 301.602 8.78437 301.602 1.93796C301.602 1.73659 301.602 1.51005 301.602 1.30869C301.627 1.00664 301.775 0.855618 302.072 0.855618C302.221 0.855618 302.369 0.855618 302.493 0.855618C307.368 0.855618 312.219 0.855618 317.094 0.855618C317.243 0.855618 317.391 0.855618 317.515 0.855618C317.911 0.830447 318.084 1.03181 318.084 1.43454C318.084 1.86244 318.084 2.31552 318.084 2.74342C318.084 4.75707 318.084 6.77072 318.084 8.78437C318.084 9.615 318.059 9.64017 317.267 9.64017C315.609 9.64017 313.976 9.64017 312.318 9.64017C311.625 9.64017 311.575 9.69052 311.575 10.3953C311.575 12.5851 311.575 14.8002 311.575 16.99C311.575 17.6444 311.625 17.6948 312.293 17.6948C313.877 17.6948 315.461 17.6948 317.045 17.6948C317.688 17.6948 317.713 17.6948 317.713 18.3492C317.713 20.6397 317.713 22.9555 317.713 25.246C317.713 25.9256 317.663 25.9759 317.02 25.9759C315.461 25.9759 313.877 25.9759 312.318 25.9759C311.625 25.9759 311.551 26.0263 311.551 26.7059C311.551 29.3488 311.551 31.9917 311.551 34.6095C311.551 35.2387 311.6 35.2891 312.244 35.2891C314.174 35.2891 316.129 35.2891 318.059 35.2891C318.777 35.2891 318.827 35.3142 318.827 36.0694C318.827 38.4354 318.827 40.8014 318.827 43.1675C318.827 43.9478 318.777 43.9981 318.035 43.9981C312.813 43.9981 307.616 43.9981 302.394 43.9981C301.627 43.9981 301.602 43.9729 301.602 43.1927C301.602 36.2959 301.602 29.374 301.602 22.4772Z" fill="#054C6C"/>
<path d="M0 22.4267C0 15.5803 0 8.75905 0 1.91264C0 1.73644 0 1.53508 0 1.35888C0 1.03166 0.173235 0.855469 0.519705 0.855469C0.69294 0.855469 0.841428 0.855469 1.01466 0.855469C5.96424 0.855469 10.9138 0.855469 15.8634 0.855469C15.9624 0.855469 16.0614 0.855469 16.1604 0.855469C16.8038 0.880639 16.9275 0.981322 16.9275 1.61059C16.9275 2.46639 16.9275 3.32219 16.9275 4.17799C16.9275 5.73857 16.9275 7.27398 16.9275 8.83456C16.9275 9.53934 16.8286 9.61485 16.1356 9.61485C14.3538 9.61485 12.5967 9.61485 10.8148 9.61485C10.0229 9.61485 9.99814 9.64003 9.99814 10.4203C9.99814 12.585 9.99814 14.7245 9.99814 16.8892C9.99814 17.6443 10.0229 17.6695 10.7653 17.6695C12.3244 17.6695 13.9083 17.6695 15.4674 17.6695C16.1356 17.6695 16.1356 17.6695 16.1356 18.3239C16.1356 20.6144 16.1356 22.9301 16.1356 25.2207C16.1356 25.9254 16.1109 25.9506 15.3932 25.9506C13.8588 25.9506 12.2997 25.9506 10.7653 25.9506C10.0476 25.9506 9.99814 26.0009 9.99814 26.7309C9.99814 32.0671 9.99814 37.4033 9.99814 42.7394C9.99814 42.9156 9.99814 43.117 9.99814 43.2932C9.97339 43.8721 9.89915 43.9476 9.35469 43.9728C8.90923 43.9728 8.43902 43.9728 7.99356 43.9728C5.59302 43.9728 3.16773 43.9728 0.767184 43.9728C0.0247478 43.9728 0 43.9476 0 43.1925C0 36.2957 0 29.3738 0 22.4267Z" fill="#054C6C"/>
<path d="M224.067 26.8062C224.067 21.3693 224.067 15.9325 224.067 10.4704C224.067 9.63981 224.043 9.61464 223.251 9.61464C221.865 9.61464 220.479 9.61464 219.118 9.61464C218.227 9.61464 218.202 9.58947 218.202 8.65815C218.202 6.36762 218.202 4.10226 218.202 1.81173C218.202 0.90559 218.252 0.855249 219.143 0.830078C221.914 0.830078 224.661 0.830078 227.433 0.830078C231.319 0.830078 235.179 0.830078 239.065 0.830078C239.931 0.830078 239.931 0.830078 239.931 1.68588C239.931 4.02675 239.931 6.36762 239.931 8.70849C239.931 9.58946 239.931 9.58946 239.089 9.58946C237.703 9.58946 236.318 9.58946 234.956 9.58946C234.14 9.58946 234.115 9.61464 234.115 10.4453C234.115 19.9346 234.115 29.3988 234.115 38.8881C234.115 40.3228 234.115 41.7827 234.115 43.2175C234.115 43.8971 234.041 43.9726 233.373 43.9726C230.527 43.9726 227.681 43.9726 224.835 43.9726C224.142 43.9726 224.117 43.9474 224.117 43.2175C224.067 37.7554 224.067 32.2934 224.067 26.8062Z" fill="#054C6C"/>
<path d="M61.3499 26.8062C61.3499 21.47 61.3499 16.1338 61.3499 10.7977C61.3499 10.7221 61.3499 10.6215 61.3499 10.5459C61.3499 9.61464 61.3499 9.61464 60.459 9.61464C59.1226 9.61464 57.7862 9.61464 56.4499 9.61464C56.3261 9.61464 56.2024 9.58947 56.0786 9.61464C55.6579 9.66498 55.5342 9.43844 55.5342 9.06088C55.5342 8.98537 55.5342 8.88469 55.5342 8.80917C55.5342 6.39279 55.5342 4.00158 55.5342 1.5852C55.5342 0.855249 55.5837 0.830078 56.2519 0.830078C62.9585 0.830078 69.6405 0.830078 76.3471 0.830078C77.1638 0.830078 77.2381 0.90559 77.2381 1.71105C77.2381 4.05192 77.2381 6.39279 77.2381 8.73366C77.2381 9.53912 77.1886 9.58946 76.3966 9.58946C74.986 9.58946 73.6001 9.58946 72.1895 9.58946C71.3728 9.58946 71.3481 9.61464 71.3481 10.4201C71.3481 21.2686 71.3481 32.092 71.3481 42.9406C71.3481 43.9726 71.3481 43.9726 70.3334 43.9726C67.6606 43.9726 64.9631 43.9726 62.2904 43.9726C61.3747 43.9726 61.3499 43.9474 61.3499 43.0413C61.3499 37.6547 61.3499 32.2179 61.3499 26.8062Z" fill="#054C6C"/>
<path d="M287.793 26.8064C287.793 32.2181 287.793 37.655 287.793 43.0667C287.793 43.2428 287.842 43.4694 287.768 43.6204C287.719 43.7714 287.57 43.8973 287.422 43.9728C287.298 44.0231 287.149 43.998 287.001 43.998C284.229 43.998 281.433 43.998 278.661 43.998C277.745 43.998 277.745 43.998 277.745 43.0415C277.745 32.2684 277.745 21.4702 277.745 10.6972C277.745 9.51417 277.819 9.61485 276.681 9.61485C275.345 9.61485 274.008 9.61485 272.672 9.61485C272.053 9.61485 271.979 9.53934 271.979 8.93525C271.979 6.46852 271.979 4.0018 271.979 1.53508C271.979 0.90581 272.078 0.855469 272.796 0.855469C278.389 0.855469 283.957 0.855469 289.55 0.855469C290.639 0.855469 291.728 0.855469 292.817 0.855469C293.51 0.855469 293.609 0.956151 293.609 1.66093C293.609 4.05214 293.609 6.44335 293.609 8.80939C293.609 9.53934 293.534 9.61485 292.767 9.61485C291.357 9.61485 289.921 9.61485 288.511 9.61485C287.793 9.61485 287.793 9.61485 287.793 10.3448C287.793 15.832 287.793 21.3192 287.793 26.8064Z" fill="#054C6C"/>
<path d="M40.2156 54.1921C53.233 54.1921 66.2751 54.1921 79.2925 54.1921C79.4657 54.1921 79.6637 54.2173 79.8369 54.1921C80.2577 54.1418 80.4309 54.3432 80.4061 54.7711C80.3814 55.199 80.3814 55.6017 80.4061 56.0296C80.4061 56.3065 80.2824 56.4575 80.0102 56.4575C79.8369 56.4575 79.639 56.4575 79.4657 56.4575C53.2825 56.4575 27.124 56.4575 0.940749 56.4575C0.841758 56.4575 0.742766 56.4575 0.643775 56.4575C0.223061 56.5079 0.0498259 56.3065 0.0745738 55.8786C0.0993217 55.4507 0.0993217 55.048 0.0745738 54.62C0.0745738 54.3432 0.198313 54.1921 0.47054 54.1921C0.668523 54.1921 0.891253 54.1921 1.08924 54.1921C14.1314 54.1921 27.1735 54.1921 40.2156 54.1921Z" fill="#054C6C"/>
<path d="M278.834 54.1924C291.901 54.1924 304.968 54.1924 318.035 54.1924C319.124 54.1924 319 54.1673 319 55.1741C319 56.634 319.198 56.4578 317.763 56.4578C291.728 56.4578 265.693 56.4578 239.659 56.4578C238.495 56.4578 238.619 56.5333 238.619 55.4258C238.619 54.0666 238.446 54.2176 239.782 54.2176C252.8 54.1924 265.817 54.1924 278.834 54.1924Z" fill="#054C6C"/>
<path d="M204.591 54.1419C204.591 52.833 204.591 51.5493 204.591 50.2404C204.591 49.5608 204.69 49.4602 205.358 49.5357C205.655 49.586 205.952 49.7119 206.175 49.8881C208.649 52.0276 211.099 54.1922 213.574 56.3317C213.772 56.5079 214.044 56.6086 214.292 56.7345C214.341 56.4576 214.416 56.1807 214.416 55.9038C214.416 54.0412 214.416 52.1786 214.416 50.316C214.416 49.586 214.985 49.2336 215.603 49.586C215.752 49.6867 215.876 49.9887 215.876 50.1901C215.9 51.5997 215.9 53.0344 215.9 54.4691C215.9 55.6521 215.9 56.8603 215.9 58.0433C215.9 58.6978 215.727 58.874 215.084 58.7985C214.812 58.7733 214.515 58.6474 214.317 58.4712C212.312 56.7596 210.332 55.048 208.328 53.3364C207.734 52.833 207.14 52.3296 206.521 51.8262C206.224 51.5745 206.076 51.65 206.051 52.0024C206.026 52.2289 206.051 52.4555 206.051 52.682C206.051 54.4439 206.051 56.2059 206.051 57.9427C206.051 58.6978 205.531 59.0502 204.863 58.723C204.714 58.6474 204.615 58.3202 204.615 58.0937C204.566 56.8352 204.591 55.4759 204.591 54.1419Z" fill="#054C6C"/>
<path d="M132.426 54.2179C132.426 55.4764 132.426 56.7349 132.426 57.9935C132.426 58.8241 132.03 59.101 131.263 58.7738C131.065 58.6982 130.867 58.5472 130.694 58.3962C128.244 56.307 125.794 54.1927 123.343 52.0784C123.17 51.9273 122.948 51.8267 122.725 51.726C122.675 51.9777 122.601 52.2042 122.601 52.4559C122.601 54.3186 122.601 56.1812 122.601 58.0438C122.601 58.7738 122.057 59.1262 121.413 58.7738C121.265 58.6982 121.166 58.4465 121.141 58.2703C121.091 57.8424 121.116 57.3894 121.116 56.9615C121.116 54.822 121.116 52.6825 121.116 50.5681C121.116 50.2409 120.943 49.7878 121.388 49.6368C121.834 49.4606 122.279 49.5613 122.651 49.8885C123.047 50.2409 123.442 50.5681 123.838 50.8954C125.868 52.6825 127.922 54.4696 129.951 56.2567C130.124 56.4077 130.298 56.5587 130.496 56.6846C130.793 56.886 130.941 56.8105 130.966 56.4329C130.991 55.8791 130.966 55.3002 130.966 54.7465C130.966 53.2866 130.966 51.8267 130.966 50.3416C130.966 49.662 131.609 49.2593 132.178 49.6117C132.327 49.7123 132.376 50.0144 132.401 50.2157C132.451 51.5498 132.426 52.8838 132.426 54.2179Z" fill="#054C6C"/>
<path d="M108.47 58.9743C106.44 58.8485 104.485 58.4961 102.852 57.1117C100.996 55.5763 100.996 52.8075 102.852 51.2721C104.065 50.2653 105.451 49.7871 106.96 49.5605C109.41 49.2081 111.737 49.5102 113.791 50.9701C115.251 52.0021 115.993 53.5123 115.374 55.3749C115.028 56.4573 114.236 57.1872 113.271 57.741C111.786 58.6471 110.153 58.8737 108.47 58.9743ZM108.495 58.1185C109.237 57.9927 109.979 57.892 110.722 57.7158C111.761 57.4893 112.627 56.9859 113.345 56.1804C114.409 54.9974 114.409 53.3361 113.345 52.1531C112.528 51.2218 111.464 50.7687 110.301 50.517C108.297 50.0891 106.366 50.2905 104.584 51.3476C103.644 51.9014 102.951 52.7572 102.877 53.9402C102.778 55.3498 103.545 56.3063 104.659 57.011C105.797 57.7661 107.109 58.0682 108.495 58.1185Z" fill="#054C6C"/>
<path d="M233.446 55.9797C233.446 56.3321 233.422 56.6845 233.446 57.0369C233.471 57.5403 233.248 57.8424 232.803 58.0437C231.788 58.522 230.724 58.7234 229.635 58.8492C227.284 59.1261 225.082 58.7485 223.102 57.3641C222.038 56.6342 221.345 55.6022 221.345 54.2178C221.32 52.5314 222.236 51.4239 223.572 50.6436C225.601 49.4605 227.829 49.1585 230.13 49.5361C231.021 49.6871 231.863 49.8884 232.654 50.2912C232.679 50.3164 232.729 50.3163 232.778 50.3415C232.951 50.5177 233.347 50.5177 233.248 50.8953C233.174 51.1722 232.654 51.3735 232.333 51.2477C232.135 51.1722 231.937 51.0211 231.739 50.9456C230.056 50.2408 228.324 50.115 226.542 50.5177C225.651 50.7191 224.859 51.0715 224.141 51.6001C222.359 52.8838 222.359 55.426 224.166 56.6845C226.072 58.0186 228.2 58.2451 230.427 57.7669C230.848 57.6662 231.244 57.5152 231.665 57.4145C231.962 57.339 232.036 57.1376 232.036 56.8356C232.036 56.1308 232.061 55.4008 232.036 54.696C232.011 54.2681 232.16 54.092 232.605 54.1171C233.422 54.1171 233.496 54.1675 233.496 54.9729C233.446 55.3505 233.446 55.6777 233.446 55.9797Z" fill="#054C6C"/>
<path d="M162.717 52.7321C162.717 51.9014 162.717 51.0456 162.717 50.215C162.717 49.6361 162.866 49.5102 163.485 49.5354C164.054 49.5354 164.202 49.6612 164.202 50.215C164.202 51.7756 164.252 53.3613 164.177 54.9219C164.079 56.9607 163.014 58.1186 160.96 58.6472C159.426 59.0499 157.867 59.0499 156.308 58.6472C155.021 58.2948 153.858 57.7158 153.363 56.3566C153.165 55.828 153.09 55.224 153.066 54.645C153.016 53.2103 153.041 51.7504 153.066 50.3157C153.066 49.6109 153.61 49.2585 154.229 49.6109C154.377 49.6864 154.476 50.0136 154.476 50.2402C154.501 51.7252 154.476 53.2103 154.501 54.6954C154.501 55.526 154.699 56.3063 155.268 56.9607C155.738 57.4893 156.382 57.741 157.05 57.8669C158.51 58.1941 159.946 58.1689 161.331 57.4641C162.247 56.9859 162.693 56.2056 162.717 55.1988C162.742 54.3681 162.717 53.5627 162.717 52.7321Z" fill="#054C6C"/>
<path d="M142.968 59C141.236 58.849 139.726 58.7232 138.316 58.0687C138.068 57.9429 137.796 57.817 137.945 57.4646C138.093 57.0871 138.34 57.0116 138.736 57.2129C140.543 58.1191 142.449 58.2198 144.404 57.9681C144.874 57.9177 145.344 57.666 145.765 57.4143C146.582 56.8857 146.532 55.9041 145.666 55.4762C145.146 55.2245 144.602 55.0231 144.057 54.8972C142.894 54.6455 141.706 54.4693 140.543 54.1925C139.999 54.0666 139.454 53.8149 138.959 53.538C137.846 52.9339 137.821 51.4237 138.736 50.6182C139.281 50.14 139.924 49.8631 140.617 49.7121C142.647 49.2087 144.626 49.41 146.582 50.0141C146.854 50.0896 147.101 50.1652 147.027 50.5427C146.953 50.8951 146.681 51.0461 146.309 50.8951C144.874 50.3162 143.389 50.1652 141.879 50.3665C141.261 50.442 140.593 50.6686 140.048 51.021C139.256 51.5244 139.306 52.4809 140.147 52.9339C140.593 53.1856 141.087 53.3618 141.582 53.4877C142.795 53.7646 144.008 53.9156 145.22 54.1925C145.814 54.3183 146.408 54.57 146.928 54.8721C147.992 55.5013 148.091 56.8102 147.2 57.6912C146.681 58.2198 146.012 58.4715 145.344 58.6225C144.478 58.8239 143.612 58.8994 142.968 59Z" fill="#054C6C"/>
<path d="M92.7548 58.1186C94.017 58.0431 95.1801 57.7662 96.269 57.1873C96.368 57.1369 96.5165 57.0362 96.6155 57.0614C96.8877 57.1621 97.1352 57.3383 97.4074 57.4641C97.2589 57.6403 97.1352 57.8669 96.9372 57.9675C95.1801 58.7982 93.3488 59.1254 91.4184 58.8485C90.4038 58.6975 89.3891 58.5213 88.4487 58.0431C86.8896 57.2628 85.6769 56.1804 85.6275 54.2675C85.578 52.6062 86.4689 51.4483 87.8053 50.6681C89.8346 49.5102 92.0124 49.1578 94.3139 49.5605C95.2296 49.7116 96.1205 49.9381 96.9372 50.4163C97.1104 50.517 97.5312 50.5422 97.3579 50.9701C97.2342 51.247 96.764 51.4483 96.467 51.3225C96.2443 51.2218 96.0463 51.0708 95.8236 50.9701C94.1902 50.2401 92.5073 50.1143 90.7503 50.5674C89.6366 50.8442 88.6714 51.2973 87.8548 52.128C86.7906 53.2103 86.7906 55.1233 87.8795 56.2056C88.6219 56.9607 89.5129 57.4641 90.5275 57.6907C91.2452 57.892 91.9876 57.9927 92.7548 58.1186Z" fill="#054C6C"/>
<path d="M186.5 49.5361C187.96 49.5361 189.42 49.5361 190.88 49.5361C191.004 49.5361 191.128 49.5361 191.251 49.5361C191.573 49.5613 191.92 49.5613 191.92 49.9892C191.895 50.4423 191.524 50.3416 191.251 50.3416C190.138 50.3668 189.024 50.3416 187.91 50.3416C187.218 50.3416 187.218 50.3416 187.218 51.0464C187.218 53.3872 187.218 55.7281 187.218 58.069C187.218 58.7234 187.094 58.8241 186.45 58.8241C185.856 58.8241 185.733 58.6982 185.733 58.0942C185.733 55.7785 185.733 53.4376 185.733 51.1219C185.733 50.3416 185.733 50.3416 184.941 50.3416C183.827 50.3416 182.713 50.3416 181.6 50.3416C181.352 50.3416 181.006 50.3668 181.031 49.964C181.055 49.5865 181.328 49.5613 181.6 49.5361C183.233 49.5361 184.866 49.5361 186.5 49.5361Z" fill="#054C6C"/>
<path d="M170.81 54.1672C170.81 52.8835 170.81 51.5746 170.81 50.2909C170.81 49.6113 171.354 49.2841 171.923 49.6113C172.072 49.6868 172.171 49.9888 172.171 50.1902C172.195 51.0208 172.171 51.8515 172.195 52.7073C172.195 54.2427 172.195 55.8033 172.195 57.3387C172.195 58.0183 172.22 58.0435 172.888 58.0435C174.868 58.0435 176.848 58.0435 178.828 58.0435C179.001 58.0435 179.15 58.0435 179.323 58.0435C179.57 58.0435 179.768 58.119 179.768 58.421C179.744 58.6979 179.595 58.8237 179.323 58.8489C179.199 58.8489 179.075 58.8489 178.952 58.8489C176.526 58.8489 174.101 58.8489 171.676 58.8489C170.884 58.8489 170.834 58.8237 170.834 57.9931C170.81 56.7094 170.81 55.4509 170.81 54.1672Z" fill="#054C6C"/>
<path d="M196.449 54.1416C196.449 52.8579 196.449 51.549 196.449 50.2653C196.449 49.6864 196.597 49.5605 197.191 49.5605C197.785 49.5605 197.909 49.6612 197.909 50.2402C197.909 52.8831 197.909 55.5512 197.909 58.1941C197.909 58.7478 197.735 58.8737 197.117 58.8485C196.548 58.8234 196.424 58.7227 196.424 58.1438C196.449 56.8097 196.449 55.4757 196.449 54.1416Z" fill="#054C6C"/>
</g>
<defs>
<clipPath id="clip0">
<rect width="319" height="59" fill="white"/>
</clipPath>
</defs>
</svg>
