<svg width="658" height="661" viewBox="0 0 658 661" fill="none" xmlns="http://www.w3.org/2000/svg">
<rect x="30" y="45" width="496" height="496" fill="url(#paint0_linear)" fill-opacity="0.5"/>
<path d="M524.544 292.58V540.748H28.4585L28.4585 292.58" stroke="#054C6C" stroke-width="4" stroke-miterlimit="10"/>
<path d="M194.556 292.58H28.4585L28.4585 45.5596L524.544 45.5596V127.576H359.241V212.682" stroke="#054C6C" stroke-width="4" stroke-miterlimit="10"/>
<path d="M28.4585 127.664H112.566" stroke="#054C6C" stroke-width="4" stroke-miterlimit="10"/>
<path d="M367 293L525.603 292.668" stroke="#054C6C" stroke-width="4" stroke-miterlimit="10"/>
<path d="M281.665 375.215H524.544" stroke="#054C6C" stroke-width="4" stroke-miterlimit="10"/>
<path d="M111.507 457.761H356.505" stroke="#054C6C" stroke-width="4" stroke-miterlimit="10"/>
<path d="M441.496 375.656V457.673" stroke="#054C6C" stroke-width="4" stroke-miterlimit="10"/>
<path d="M357.476 456.613V538.63" stroke="#054C6C" stroke-width="4" stroke-miterlimit="10"/>
<path d="M276.545 44.5L273.989 283" stroke="#054C6C" stroke-width="4" stroke-miterlimit="10"/>
<path d="M111.684 127.664V209.592" stroke="#054C6C" stroke-width="4" stroke-miterlimit="10"/>
<path d="M193.673 292.58V128.547" stroke="#054C6C" stroke-width="4" stroke-miterlimit="10"/>
<path d="M193.673 457.672V377.687H110.448" stroke="#054C6C" stroke-width="4" stroke-miterlimit="10"/>
<path d="M441.496 127.576V209.593" stroke="#054C6C" stroke-width="4" stroke-miterlimit="10"/>
<path d="M524.544 127.576L525.003 293" stroke="#054C6C" stroke-width="4" stroke-miterlimit="10"/>
<circle cx="136.5" cy="334" r="18.5" fill="#77C7F2" fill-opacity="0.5"/>
<circle cx="70.5" cy="334" r="18.5" fill="#77C7F2"/>
<circle cx="70.5" cy="403.5" r="18.5" fill="#77C7F2" fill-opacity="0.2"/>
<circle cx="70.5" cy="473" r="18.5" fill="#77C7F2" fill-opacity="0.5"/>
<circle cx="200" cy="333.5" r="18.5" fill="#77C7F2" fill-opacity="0.2"/>
<circle cx="267" cy="334" r="18.5" fill="#77C7F2"/>
<circle cx="388.5" cy="87.5" r="18.5" fill="#77C7F2" fill-opacity="0.2"/>
<circle cx="317.5" cy="87.5" r="18.5" fill="#77C7F2" fill-opacity="0.5"/>
<circle cx="317.5" cy="154.5" r="18.5" fill="#77C7F2"/>
<circle cx="317.5" cy="219.5" r="18.5" fill="#77C7F2" fill-opacity="0.2"/>
<circle cx="317.5" cy="289.5" r="18.5" fill="#77C7F2" fill-opacity="0.5"/>
<path d="M633.493 78.1561C642.076 81.4286 642.076 93.5713 633.493 96.8439L472.813 158.106C466.267 160.602 459.25 155.768 459.25 148.762L459.25 26.2376C459.25 19.2322 466.267 14.3981 472.813 16.8937L633.493 78.1561Z" fill="url(#paint1_radial)"/>
<circle cx="71" cy="590" r="71" fill="url(#paint2_radial)"/>
<defs>
<linearGradient id="paint0_linear" x1="278" y1="45" x2="278" y2="541" gradientUnits="userSpaceOnUse">
<stop stop-color="#054C6C"/>
<stop offset="1" stop-color="#054C6C" stop-opacity="0.16"/>
</linearGradient>
<radialGradient id="paint1_radial" cx="0" cy="0" r="1" gradientUnits="userSpaceOnUse" gradientTransform="translate(565.725 53.238) rotate(140.126) scale(128.747 85.1446)">
<stop stop-color="#CCE7F3"/>
<stop offset="1" stop-color="#0087C4"/>
</radialGradient>
<radialGradient id="paint2_radial" cx="0" cy="0" r="1" gradientUnits="userSpaceOnUse" gradientTransform="translate(96.1435 552.844) rotate(119.082) scale(84.0642)">
<stop stop-color="#0087C4"/>
<stop offset="1" stop-color="#054C6C"/>
</radialGradient>
</defs>
</svg>
