<svg width="611" height="845" viewBox="0 0 611 845" fill="none" xmlns="http://www.w3.org/2000/svg">
<circle cx="294.5" cy="567.5" r="276.5" stroke="#77C7F2" stroke-opacity="0.3" stroke-width="2"/>
<circle cx="294.5" cy="567.5" r="233.5" stroke="#77C7F2" stroke-opacity="0.09" stroke-width="2"/>
<path fill-rule="evenodd" clip-rule="evenodd" d="M450.208 631.388C446.248 636.297 443.866 642.535 443.838 649.333C443.773 665.235 456.611 678.179 472.513 678.244C488.414 678.31 501.358 665.472 501.424 649.57C501.452 642.772 499.121 636.514 495.202 631.572L554.788 631.817C556.445 631.824 557.793 630.486 557.8 628.83L557.939 595.033C552.665 600.586 545.202 604.035 536.939 604.001C521.038 603.936 508.2 590.992 508.265 575.09C508.33 559.188 521.274 546.35 537.176 546.416C545.438 546.45 552.873 549.96 558.101 555.556L558.241 521.378C558.248 519.721 556.911 518.372 555.254 518.366L497.395 518.128C501.605 513.145 504.154 506.71 504.183 499.677C504.248 483.775 491.41 470.831 475.508 470.766C459.607 470.7 446.663 483.538 446.597 499.44C446.568 506.474 449.064 512.929 453.233 517.947L394.514 517.705C392.857 517.699 391.509 519.036 391.502 520.693L391.367 553.517C396.497 548.902 403.293 546.105 410.736 546.135C426.638 546.201 439.476 559.145 439.411 575.046C439.345 590.948 426.402 603.786 410.5 603.721C403.056 603.69 396.284 600.838 391.192 596.181L391.061 628.145C391.054 629.802 392.391 631.15 394.048 631.157L450.208 631.388Z" fill="#0087C4"/>
<path fill-rule="evenodd" clip-rule="evenodd" d="M453.209 397.847C449.248 402.756 446.867 408.994 446.839 415.792C446.773 431.694 459.611 444.638 475.513 444.703C491.415 444.769 504.359 431.931 504.424 416.029C504.452 409.231 502.122 402.973 498.202 398.031L557.788 398.276C559.445 398.283 560.794 396.945 560.801 395.289L560.939 361.492C555.666 367.044 548.202 370.494 539.94 370.46C524.038 370.395 511.2 357.451 511.265 341.549C511.331 325.647 524.275 312.809 540.176 312.875C548.439 312.909 555.874 316.419 561.102 322.015L561.242 287.837C561.249 286.18 559.911 284.831 558.254 284.825L500.396 284.587C504.606 279.604 507.154 273.169 507.183 266.136C507.248 250.234 494.411 237.29 478.509 237.225C462.607 237.159 449.663 249.997 449.598 265.899C449.569 272.933 452.065 279.388 456.233 284.405L397.515 284.164C395.858 284.158 394.509 285.495 394.502 287.152L394.368 319.976C399.497 315.361 406.293 312.564 413.737 312.594C429.639 312.66 442.477 325.604 442.411 341.505C442.346 357.407 429.402 370.245 413.5 370.18C406.057 370.149 399.284 367.297 394.192 362.639L394.061 394.604C394.054 396.261 395.392 397.609 397.049 397.616L453.209 397.847Z" fill="#0087C4" fill-opacity="0.6"/>
<path fill-rule="evenodd" clip-rule="evenodd" d="M453.209 161.847C449.249 166.756 446.867 172.994 446.839 179.792C446.774 195.694 459.612 208.638 475.514 208.703C491.415 208.769 504.359 195.931 504.425 180.029C504.453 173.231 502.122 166.973 498.202 162.031L557.789 162.276C559.446 162.283 560.794 160.945 560.801 159.289L560.94 125.492C555.666 131.044 548.203 134.494 539.94 134.46C524.039 134.395 511.201 121.451 511.266 105.549C511.331 89.6474 524.275 76.8094 540.177 76.8747C548.439 76.9087 555.874 80.4194 561.102 86.0153L561.242 51.8368C561.249 50.18 559.912 48.8313 558.255 48.8245L500.396 48.5869C504.606 43.6036 507.155 37.1693 507.184 30.1356C507.249 14.2338 494.411 1.28997 478.509 1.22466C462.607 1.15934 449.664 13.9973 449.598 29.899C449.569 36.9328 452.065 43.3877 456.234 48.4055L397.515 48.1643C395.858 48.1575 394.51 49.4951 394.503 51.152L394.368 83.9759C399.498 79.3608 406.294 76.5639 413.737 76.5945C429.639 76.6598 442.477 89.6037 442.412 105.505C442.346 121.407 429.403 134.245 413.501 134.18C406.057 134.149 399.285 131.297 394.193 126.639L394.062 158.604C394.055 160.261 395.392 161.609 397.049 161.616L453.209 161.847Z" fill="#0087C4" fill-opacity="0.1"/>
<path fill-rule="evenodd" clip-rule="evenodd" d="M100.02 630.412C96.0599 635.322 93.6783 641.56 93.6503 648.358C93.585 664.26 106.423 677.203 122.325 677.269C138.226 677.334 151.17 664.496 151.236 648.594C151.264 641.796 148.933 635.539 145.014 630.597L204.6 630.842C206.257 630.848 207.605 629.511 207.612 627.854L207.751 594.057C202.477 599.61 195.014 603.059 186.751 603.026C170.85 602.96 158.012 590.016 158.077 574.115C158.142 558.213 171.086 545.375 186.988 545.44C195.25 545.474 202.685 548.985 207.913 554.581L208.053 520.402C208.06 518.745 206.723 517.397 205.066 517.39L147.208 517.152C151.417 512.169 153.966 505.735 153.995 498.701C154.06 482.799 141.222 469.855 125.32 469.79C109.419 469.725 96.4747 482.563 96.4094 498.464C96.3805 505.498 98.8761 511.953 103.045 516.971L44.3262 516.73C42.6693 516.723 41.3207 518.061 41.3139 519.717L41.1791 552.541C46.3089 547.926 53.1046 545.129 60.5484 545.16C76.4501 545.225 89.2881 558.169 89.2228 574.071C89.1575 589.973 76.2136 602.811 60.3118 602.745C52.868 602.715 46.0956 599.862 41.0038 595.205L40.8725 627.169C40.8657 628.826 42.2033 630.175 43.8602 630.181L100.02 630.412Z" fill="#0087C4"/>
<path fill-rule="evenodd" clip-rule="evenodd" d="M103.02 396.872C99.0599 401.781 96.6783 408.02 96.6503 414.818C96.585 430.719 109.423 443.663 125.325 443.729C141.226 443.794 154.17 430.956 154.236 415.054C154.264 408.256 151.933 401.999 148.014 397.057L207.6 397.302C209.257 397.308 210.605 395.971 210.612 394.314L210.751 360.517C205.477 366.07 198.014 369.519 189.751 369.485C173.85 369.42 161.012 356.476 161.077 340.575C161.142 324.673 174.086 311.835 189.988 311.9C198.25 311.934 205.685 315.445 210.913 321.041L211.053 286.862C211.06 285.205 209.723 283.857 208.066 283.85L150.208 283.612C154.417 278.629 156.966 272.195 156.995 265.161C157.06 249.259 144.222 236.315 128.32 236.25C112.419 236.185 99.4747 249.023 99.4094 264.924C99.3805 271.958 101.876 278.413 106.045 283.431L47.3262 283.19C45.6693 283.183 44.3207 284.521 44.3139 286.177L44.1791 319.001C49.3089 314.386 56.1046 311.589 63.5484 311.62C79.4501 311.685 92.2881 324.629 92.2228 340.531C92.1575 356.433 79.2136 369.271 63.3118 369.205C55.868 369.175 49.0956 366.322 44.0038 361.665L43.8725 393.629C43.8657 395.286 45.2033 396.635 46.8602 396.641L103.02 396.872Z" fill="#0087C4" fill-opacity="0.1"/>
<path fill-rule="evenodd" clip-rule="evenodd" d="M270.552 751.259C266.592 756.168 264.21 762.406 264.182 769.204C264.117 785.106 276.955 798.05 292.856 798.115C308.758 798.181 321.702 785.343 321.767 769.441C321.795 762.643 319.465 756.385 315.545 751.444L375.132 751.688C376.788 751.695 378.137 750.357 378.144 748.701L378.283 714.904C373.009 720.457 365.545 723.906 357.283 723.872C341.381 723.807 328.543 710.863 328.609 694.961C328.674 679.06 341.618 666.222 357.52 666.287C365.782 666.321 373.217 669.832 378.445 675.427L378.585 641.249C378.592 639.592 377.254 638.243 375.598 638.237L317.739 637.999C321.949 633.016 324.498 626.581 324.526 619.548C324.592 603.646 311.754 590.702 295.852 590.637C279.95 590.571 267.006 603.409 266.941 619.311C266.912 626.345 269.408 632.8 273.576 637.818L214.858 637.576C213.201 637.57 211.852 638.907 211.846 640.564L211.711 673.388C216.841 668.773 223.636 665.976 231.08 666.007C246.982 666.072 259.82 679.016 259.755 694.918C259.689 710.819 246.745 723.657 230.844 723.592C223.4 723.561 216.627 720.709 211.536 716.052L211.404 748.016C211.397 749.673 212.735 751.021 214.392 751.028L270.552 751.259Z" fill="#77C7F2"/>
<path fill-rule="evenodd" clip-rule="evenodd" d="M281.351 514.872C277.39 519.781 275.009 526.02 274.981 532.818C274.916 548.719 287.754 561.663 303.655 561.729C319.557 561.794 332.501 548.956 332.566 533.054C332.594 526.256 330.264 519.999 326.344 515.057L385.93 515.302C387.587 515.308 388.936 513.971 388.943 512.314L389.082 478.517C383.808 484.07 376.344 487.519 368.082 487.485C352.18 487.42 339.342 474.476 339.407 458.575C339.473 442.673 352.417 429.835 368.318 429.9C376.581 429.934 384.016 433.445 389.244 439.041L389.384 404.862C389.391 403.205 388.053 401.857 386.396 401.85L328.538 401.612C332.748 396.629 335.296 390.195 335.325 383.161C335.391 367.259 322.553 354.315 306.651 354.25C290.749 354.185 277.805 367.023 277.74 382.924C277.711 389.958 280.207 396.413 284.375 401.431L225.657 401.19C224 401.183 222.651 402.521 222.644 404.177L222.51 437.001C227.639 432.386 234.435 429.589 241.879 429.62C257.781 429.685 270.619 442.629 270.553 458.531C270.488 474.433 257.544 487.271 241.642 487.205C234.199 487.175 227.426 484.322 222.334 479.665L222.203 511.629C222.196 513.286 223.534 514.635 225.191 514.641L281.351 514.872Z" fill="#77C7F2"/>
<path fill-rule="evenodd" clip-rule="evenodd" d="M281.351 278.871C277.391 283.78 275.009 290.019 274.981 296.817C274.916 312.718 287.754 325.662 303.656 325.728C319.558 325.793 332.501 312.955 332.567 297.053C332.595 290.255 330.264 283.998 326.345 279.056L385.931 279.301C387.588 279.307 388.936 277.97 388.943 276.313L389.082 242.516C383.808 248.069 376.345 251.518 368.082 251.484C352.181 251.419 339.343 238.475 339.408 222.574C339.473 206.672 352.417 193.834 368.319 193.899C376.581 193.933 384.016 197.444 389.244 203.04L389.385 168.861C389.391 167.204 388.054 165.856 386.397 165.849L328.539 165.611C332.748 160.628 335.297 154.194 335.326 147.16C335.391 131.258 322.553 118.314 306.651 118.249C290.75 118.184 277.806 131.022 277.74 146.923C277.712 153.957 280.207 160.412 284.376 165.43L225.657 165.189C224 165.182 222.652 166.52 222.645 168.176L222.51 201C227.64 196.385 234.436 193.588 241.879 193.619C257.781 193.684 270.619 206.628 270.554 222.53C270.489 238.432 257.545 251.27 241.643 251.204C234.199 251.174 227.427 248.321 222.335 243.664L222.204 275.628C222.197 277.285 223.534 278.634 225.191 278.64L281.351 278.871Z" fill="#77C7F2" fill-opacity="0.2"/>
<path fill-rule="evenodd" clip-rule="evenodd" d="M270.802 610.222C270.899 594.32 283.869 581.508 299.771 581.605C315.672 581.703 328.484 594.672 328.387 610.574C328.339 618.443 325.138 625.556 319.99 630.722L379.411 631.085C381.067 631.095 382.419 629.76 382.429 628.103L382.62 596.889C387.595 601.109 394.024 603.67 401.057 603.713C416.959 603.81 429.928 590.998 430.026 575.097C430.123 559.195 417.311 546.225 401.409 546.128C394.376 546.085 387.916 548.568 382.89 552.726L383.086 520.653C383.096 518.996 381.761 517.645 380.105 517.635L318.84 517.26C325 522.579 328.878 530.462 328.824 539.237C328.727 555.139 315.757 567.951 299.856 567.854C283.954 567.756 271.142 554.787 271.239 538.885C271.293 530.109 275.267 522.274 281.491 517.031L219.367 516.651C217.71 516.641 216.358 517.976 216.348 519.633L216.148 552.456C211.065 547.789 204.298 544.923 196.855 544.877C180.953 544.78 167.983 557.592 167.886 573.493C167.789 589.395 180.601 602.364 196.502 602.462C203.946 602.507 210.747 599.724 215.887 595.119L215.691 627.083C215.681 628.74 217.016 630.092 218.673 630.102L278.952 630.47C273.867 625.242 270.754 618.091 270.802 610.222Z" fill="url(#paint0_radial)"/>
<path fill-rule="evenodd" clip-rule="evenodd" d="M450.94 493.809C451.038 477.908 464.007 465.096 479.909 465.193C495.81 465.291 508.622 478.26 508.525 494.162C508.477 502.031 505.276 509.144 500.128 514.309L559.549 514.673C561.206 514.683 562.557 513.348 562.567 511.691L562.758 480.477C567.733 484.696 574.162 487.258 581.195 487.301C597.097 487.398 610.066 474.586 610.164 458.685C610.261 442.783 597.449 429.813 581.548 429.716C574.514 429.673 568.054 432.156 563.028 436.314L563.224 404.241C563.234 402.584 561.9 401.233 560.243 401.222L498.978 400.848C505.138 406.167 509.016 414.049 508.962 422.825C508.865 438.727 495.895 451.539 479.994 451.441C464.092 451.344 451.28 438.375 451.378 422.473C451.431 413.697 455.406 405.862 461.63 400.619L399.505 400.239C397.848 400.229 396.497 401.564 396.486 403.221L396.286 436.044C391.203 431.377 384.437 428.51 376.993 428.465C361.091 428.368 348.122 441.179 348.024 457.081C347.927 472.983 360.739 485.952 376.641 486.05C384.084 486.095 390.886 483.312 396.025 478.707L395.829 510.671C395.819 512.328 397.154 513.679 398.811 513.69L459.09 514.058C454.005 508.83 450.892 501.679 450.94 493.809Z" fill="#30B5F0"/>
<path fill-rule="evenodd" clip-rule="evenodd" d="M450.941 257.809C451.038 241.908 464.008 229.096 479.909 229.193C495.811 229.291 508.623 242.26 508.526 258.162C508.477 266.031 505.277 273.144 500.129 278.309L559.549 278.673C561.206 278.683 562.557 277.348 562.567 275.691L562.758 244.477C567.733 248.696 574.162 251.258 581.196 251.301C597.097 251.398 610.067 238.586 610.164 222.685C610.262 206.783 597.45 193.813 581.548 193.716C574.515 193.673 568.055 196.156 563.029 200.314L563.225 168.241C563.235 166.584 561.9 165.233 560.243 165.222L498.979 164.848C505.138 170.167 509.016 178.049 508.963 186.825C508.866 202.727 495.896 215.539 479.994 215.441C464.093 215.344 451.281 202.375 451.378 186.473C451.432 177.697 455.406 169.862 461.63 164.619L399.505 164.239C397.848 164.229 396.497 165.564 396.487 167.221L396.286 200.044C391.204 195.377 384.437 192.51 376.993 192.465C361.092 192.368 348.122 205.179 348.025 221.081C347.928 236.983 360.74 249.952 376.641 250.05C384.085 250.095 390.886 247.312 396.025 242.707L395.83 274.671C395.819 276.328 397.154 277.679 398.811 277.69L459.091 278.058C454.006 272.83 450.893 265.679 450.941 257.809Z" fill="#30B5F0" fill-opacity="0.3"/>
<path fill-rule="evenodd" clip-rule="evenodd" d="M278.26 374.79C278.357 358.888 291.327 346.076 307.228 346.174C323.13 346.271 335.942 359.241 335.844 375.142C335.796 383.011 332.596 390.124 327.448 395.29L386.868 395.653C388.525 395.664 389.876 394.329 389.886 392.672L390.077 361.457C395.052 365.677 401.481 368.238 408.515 368.281C424.416 368.379 437.386 355.567 437.483 339.665C437.58 323.763 424.768 310.794 408.867 310.697C401.833 310.654 395.374 313.136 390.347 317.294L390.544 285.221C390.554 283.564 389.219 282.213 387.562 282.203L326.298 281.828C332.457 287.147 336.335 295.03 336.282 303.806C336.184 319.707 323.215 332.519 307.313 332.422C291.412 332.325 278.6 319.355 278.697 303.453C278.751 294.678 282.725 286.843 288.949 281.6L226.824 281.22C225.167 281.209 223.816 282.544 223.806 284.201L223.605 317.024C218.523 312.357 211.756 309.491 204.312 309.445C188.411 309.348 175.441 322.16 175.344 338.062C175.246 353.963 188.058 366.933 203.96 367.03C211.404 367.076 218.205 364.292 223.344 359.688L223.148 391.652C223.138 393.309 224.473 394.66 226.13 394.67L286.409 395.039C281.325 389.81 278.212 382.659 278.26 374.79Z" fill="#30B5F0" fill-opacity="0.3"/>
<path fill-rule="evenodd" clip-rule="evenodd" d="M103.26 489.809C103.357 473.908 116.327 461.096 132.228 461.193C148.13 461.291 160.942 474.26 160.844 490.162C160.796 498.031 157.596 505.144 152.448 510.309L211.868 510.673C213.525 510.683 214.876 509.348 214.886 507.691L215.077 476.477C220.052 480.696 226.481 483.258 233.515 483.301C249.416 483.398 262.386 470.586 262.483 454.685C262.58 438.783 249.768 425.813 233.867 425.716C226.833 425.673 220.374 428.156 215.347 432.314L215.544 400.241C215.554 398.584 214.219 397.233 212.562 397.222L151.298 396.848C157.457 402.167 161.335 410.049 161.282 418.825C161.184 434.727 148.215 447.539 132.313 447.441C116.412 447.344 103.6 434.375 103.697 418.473C103.751 409.697 107.725 401.862 113.949 396.619L51.8241 396.239C50.1673 396.229 48.816 397.564 48.8058 399.221L48.605 432.044C43.5226 427.377 36.7559 424.51 29.3122 424.465C13.4107 424.368 0.441009 437.179 0.343727 453.081C0.246444 468.983 13.0584 481.952 28.9599 482.05C36.4037 482.095 43.2049 479.312 48.344 474.707L48.1485 506.671C48.1383 508.328 49.4732 509.679 51.1301 509.69L111.409 510.058C106.325 504.83 103.212 497.679 103.26 489.809Z" fill="#30B5F0" fill-opacity="0.3"/>
<defs>
<radialGradient id="paint0_radial" cx="0" cy="0" r="1" gradientUnits="userSpaceOnUse" gradientTransform="translate(307.777 537.39) rotate(130.357) scale(94.2553 101.324)">
<stop stop-color="#0087C4"/>
<stop offset="1" stop-color="#054C6C"/>
</radialGradient>
</defs>
</svg>
