<svg width="91" height="69" viewBox="0 0 91 69" fill="none" xmlns="http://www.w3.org/2000/svg">
<path d="M49.4484 69L47.5029 65.9701C48.7999 61.012 50.3286 55.7325 52.0888 50.1317C53.9417 44.5309 55.9336 38.8842 58.0645 33.1916C60.1953 27.499 62.4651 21.8523 64.8739 16.2515C67.2827 10.5589 69.6452 5.14172 71.9613 0H91C89.6103 5.6008 88.2206 11.4311 86.8309 17.491C85.5339 23.5509 84.2832 29.6108 83.0788 35.6707C81.8744 41.6387 80.7627 47.4691 79.7436 53.1617C78.7244 58.8543 77.8443 64.1337 77.1032 69H49.4484ZM1.94556 69L0 65.9701C1.29704 61.012 2.82569 55.7325 4.58596 50.1317C6.43887 44.5309 8.43075 38.8842 10.5616 33.1916C12.6925 27.499 14.9623 21.8523 17.3711 16.2515C19.7798 10.5589 22.1423 5.14172 24.4585 0H43.4971C42.1074 5.6008 40.7178 11.4311 39.3281 17.491C38.031 23.5509 36.7803 29.6108 35.5759 35.6707C34.3715 41.6387 33.2598 47.4691 32.2407 53.1617C31.2216 58.8543 30.3415 64.1337 29.6003 69H1.94556Z" fill="#77C7F2" fill-opacity="0.32"/>
</svg>
