<svg width="50" height="50" viewBox="0 0 50 50" fill="none" xmlns="http://www.w3.org/2000/svg">
<g clip-path="url(#clip0)">
<path d="M14.1001 26.7002H15.9001V35.6002H17.6001V26.7002H19.4001V25.2002H14.1001V26.7002Z" fill="#77C7F2"/>
<path d="M24.7 19.2999C24.9 19.2999 25.1 19.1999 25.3 19.0999C25.4 18.9999 25.5 18.7999 25.5 18.5999V13.9999C25.5 13.7999 25.4 13.6999 25.3 13.5999C25.2 13.4999 25 13.3999 24.7 13.3999C24.5 13.3999 24.3 13.4999 24.2 13.5999C24 13.6999 24 13.7999 24 13.9999V18.5999C24 18.7999 24.1 18.9999 24.2 19.0999C24.3 19.2999 24.5 19.2999 24.7 19.2999Z" fill="#77C7F2"/>
<path d="M28.5001 27.8002C28.3001 27.8002 28.0001 27.9002 27.8001 28.0002C27.6001 28.1002 27.4001 28.3002 27.1001 28.5002V25.2002H25.6001V35.6002H27.1001V35.0002C27.3001 35.2002 27.5001 35.4002 27.8001 35.5002C28.0001 35.6002 28.3001 35.7002 28.6001 35.7002C29.1001 35.7002 29.4001 35.6002 29.6001 35.3002C29.8001 35.0002 30.0001 34.6002 30.0001 34.1002V29.9002C30.0001 29.3002 29.9001 28.8002 29.6001 28.5002C29.3001 28.0002 29.0001 27.8002 28.5001 27.8002ZM28.4001 33.8002C28.4001 34.0002 28.4001 34.2002 28.3001 34.3002C28.2001 34.4002 28.1001 34.5002 27.9001 34.5002C27.8001 34.5002 27.7001 34.5002 27.5001 34.4002C27.4001 34.3002 27.3001 34.3002 27.1001 34.1002V29.3002C27.2001 29.2002 27.3001 29.1002 27.4001 29.1002C27.5001 29.0002 27.6001 29.0002 27.7001 29.0002C27.9001 29.0002 28.1001 29.1002 28.2001 29.2002C28.3001 29.3002 28.4001 29.5002 28.4001 29.8002V33.8002Z" fill="#77C7F2"/>
<path d="M22.9001 33.6999C22.8001 33.8999 22.6001 33.9999 22.4001 34.0999C22.2001 34.1999 22.1001 34.2999 22.0001 34.2999C21.9001 34.2999 21.8001 34.2999 21.7001 34.1999C21.6001 34.0999 21.6001 33.9999 21.6001 33.7999V27.8999H20.1001V34.2999C20.1001 34.7999 20.2001 35.0999 20.4001 35.2999C20.6001 35.4999 20.8001 35.5999 21.2001 35.5999C21.5001 35.5999 21.8001 35.4999 22.1001 35.3999C22.4001 35.1999 22.7001 34.9999 23.0001 34.6999V35.4999H24.5001V27.8999H23.0001V33.6999H22.9001Z" fill="#77C7F2"/>
<path d="M24.6 0C11 0 0 11 0 24.6C0 38.2 11 49.2 24.6 49.2C38.2 49.2 49.2 38.2 49.2 24.6C49.2 11 38.2 0 24.6 0ZM28.6 12.2H30.3V18.7C30.3 18.9 30.3 19 30.4 19.1C30.5 19.2 30.6 19.2 30.7 19.2C30.8 19.2 31 19.1 31.2 19C31.4 18.9 31.6 18.7 31.7 18.5V12.1H33.4V20.5H31.7V19.6C31.4 19.9 31.1 20.2 30.7 20.4C30.4 20.6 30 20.7 29.7 20.7C29.3 20.7 29 20.6 28.8 20.3C28.6 20.1 28.5 19.7 28.5 19.2V12.2H28.6ZM22.2 14.1C22.2 13.4 22.4 12.9 22.9 12.5C23.4 12.1 24 11.9 24.8 11.9C25.5 11.9 26.1 12.1 26.6 12.5C27.1 12.9 27.3 13.4 27.3 14.1V18.4C27.3 19.1 27.1 19.7 26.6 20.1C26.2 20.5 25.5 20.7 24.8 20.7C24 20.7 23.4 20.5 23 20.1C22.5 19.7 22.3 19.1 22.3 18.4V14.1H22.2ZM17.5 9.2L18.8 13.8H18.9L20.1 9.2H22.1L19.8 15.9V20.6H17.9V16.1L15.6 9.2H17.5ZM40.1 33.2C40.1 36.2 37.6 38.7 34.6 38.7H15.4C12.4 38.7 9.9 36.2 9.9 33.2V28.8C9.9 25.8 12.4 23.3 15.4 23.3H34.6C37.6 23.3 40.1 25.8 40.1 28.8V33.2Z" fill="#77C7F2"/>
<path d="M33.1002 27.7002C32.4002 27.7002 31.9002 27.9002 31.4002 28.3002C31.0002 28.7002 30.7002 29.3002 30.7002 29.9002V33.3002C30.7002 34.0002 30.9002 34.6002 31.3002 35.0002C31.7002 35.4002 32.2002 35.6002 32.9002 35.6002C33.7002 35.6002 34.2002 35.4002 34.6002 35.0002C35.0002 34.6002 35.2002 34.0002 35.2002 33.2002V33.0002H33.6002V33.3002C33.6002 33.8002 33.5002 34.0002 33.4002 34.2002C33.3002 34.3002 33.1002 34.4002 32.9002 34.4002C32.7002 34.4002 32.5002 34.3002 32.4002 34.2002C32.3002 34.0002 32.3002 33.8002 32.3002 33.4002V32.0002H35.2002V30.0002C35.2002 29.3002 35.0002 28.7002 34.6002 28.3002C34.3002 27.9002 33.8002 27.7002 33.1002 27.7002ZM33.7002 30.7002H32.3002V30.0002C32.3002 29.7002 32.3002 29.4002 32.5002 29.3002C32.6002 29.2002 32.8002 29.1002 33.0002 29.1002C33.2002 29.1002 33.4002 29.2002 33.5002 29.3002C33.6002 29.4002 33.7002 29.7002 33.7002 30.0002V30.7002Z" fill="#77C7F2"/>
</g>
<defs>
<clipPath id="clip0">
<rect width="49.2" height="49.2" fill="white"/>
</clipPath>
</defs>
</svg>
