<svg width="50" height="50" viewBox="0 0 50 50" fill="none" xmlns="http://www.w3.org/2000/svg">
<path d="M24.9998 20.2998C22.3998 20.2998 20.2998 22.3998 20.2998 24.9998C20.2998 27.5998 22.3998 29.6998 24.9998 29.6998C27.5998 29.6998 29.6998 27.5998 29.6998 24.9998C29.6998 22.3998 27.5998 20.2998 24.9998 20.2998Z" fill="#77C7F2"/>
<path d="M35.9 16.7C35.6 16 35.3 15.6 34.9 15.1C34.4 14.6 33.9 14.3 33.3 14.1C32.8 13.9 32.1 13.7 30.7 13.6C29.2 13.5 28.8 13.5 25 13.5C21.2 13.5 20.8 13.5 19.3 13.6C17.9 13.7 17.2 13.9 16.7 14.1C16 14.4 15.6 14.7 15.1 15.1C14.6 15.5 14.3 16.1 14.1 16.7C13.9 17.2 13.7 17.9 13.6 19.3C13.5 20.8 13.5 21.2 13.5 25C13.5 28.7 13.5 29.2 13.6 30.7C13.7 32.1 13.9 32.8 14.1 33.3C14.4 34 14.7 34.4 15.1 34.9C15.6 35.4 16.1 35.7 16.7 35.9C17.2 36.1 17.9 36.3 19.3 36.4C20.8 36.5 21.2 36.5 25 36.5C28.7 36.5 29.2 36.5 30.7 36.4C32.1 36.3 32.8 36.1 33.3 35.9C34 35.6 34.4 35.3 34.9 34.9C35.4 34.4 35.7 33.9 35.9 33.3C36.1 32.8 36.3 32.1 36.4 30.7C36.5 29.2 36.5 28.8 36.5 25C36.5 21.3 36.5 20.8 36.4 19.3C36.3 18 36.1 17.2 35.9 16.7ZM25 32.2C21 32.2 17.8 29 17.8 25C17.8 21 21 17.8 25 17.8C29 17.8 32.2 21 32.2 25C32.2 29 29 32.2 25 32.2ZM32.5 19.2C31.6 19.2 30.8 18.4 30.8 17.5C30.8 16.6 31.6 15.8 32.5 15.8C33.4 15.8 34.2 16.6 34.2 17.5C34.2 18.5 33.4 19.2 32.5 19.2Z" fill="#77C7F2"/>
<path d="M25 0C11.2 0 0 11.2 0 25C0 38.8 11.2 50 25 50C38.8 50 50 38.8 50 25C50 11.2 38.8 0 25 0ZM38.9 30.8C38.8 32.3 38.6 33.3 38.2 34.2C37.8 35.1 37.4 35.9 36.6 36.7C35.8 37.5 35 38 34.1 38.3C33.2 38.6 32.2 38.9 30.7 39C29.3 39 28.8 39 25 39C21.2 39 20.7 39 19.2 38.9C17.7 38.8 16.7 38.6 15.8 38.2C14.9 37.8 14.1 37.4 13.3 36.6C12.5 35.8 12 35 11.7 34.1C11.4 33.2 11.1 32.2 11 30.7C11 29.3 11 28.8 11 25C11 21.2 11 20.7 11.1 19.2C11.2 17.7 11.4 16.7 11.8 15.8C12.2 14.9 12.6 14.1 13.4 13.3C14.2 12.5 15 12 15.9 11.7C16.8 11.4 17.8 11.1 19.3 11C20.8 10.9 21.3 10.9 25.1 10.9C28.9 10.9 29.4 10.9 30.9 11C32.4 11.1 33.4 11.3 34.3 11.7C35.2 12.1 36 12.5 36.8 13.3C37.6 14.1 38.1 14.9 38.4 15.8C38.7 16.7 39 17.7 39.1 19.2C39.2 20.7 39.2 21.2 39.2 25C39.2 28.8 39 29.3 38.9 30.8Z" fill="#77C7F2"/>
</svg>
