<svg width="50" height="50" viewBox="0 0 50 50" fill="none" xmlns="http://www.w3.org/2000/svg">
<g clip-path="url(#clip0)">
<path d="M24.6 0C11 0 0 11 0 24.6C0 38.2 11 49.2 24.6 49.2C38.2 49.2 49.2 38.2 49.2 24.6C49.2 11 38.2 0 24.6 0ZM38.3 36.6C38.3 37.7 37.4 38.6 36.3 38.6H12.9C11.8 38.6 10.9 37.7 10.9 36.6V12.9C10.9 11.8 11.8 10.9 12.9 10.9H36.3C37.4 10.9 38.3 11.8 38.3 12.9V36.6Z" fill="#77C7F2"/>
<path d="M29.4001 21.2998C27.2001 21.2998 26.2001 22.4998 25.7001 23.3998V21.5998H21.6001C21.7001 22.7998 21.6001 34.0998 21.6001 34.0998H25.7001V27.0998C25.7001 26.6998 25.7001 26.3998 25.8001 26.0998C26.1001 25.3998 26.8001 24.5998 27.9001 24.5998C29.4001 24.5998 30.0001 25.6998 30.0001 27.3998V34.0998H34.2001V26.8998C34.2001 23.0998 32.1001 21.2998 29.4001 21.2998Z" fill="#77C7F2"/>
<path d="M17.0998 15.6001C15.6998 15.6001 14.7998 16.5001 14.7998 17.8001C14.7998 19.0001 15.6998 20.0001 17.0998 20.0001C18.4998 20.0001 19.3998 19.0001 19.3998 17.8001C19.3998 16.5001 18.5998 15.6001 17.0998 15.6001Z" fill="#77C7F2"/>
<path d="M19.2 21.6001H15V34.1001H19.2V21.6001Z" fill="#77C7F2"/>
</g>
<defs>
<clipPath id="clip0">
<rect width="49.2" height="49.2" fill="white"/>
</clipPath>
</defs>
</svg>
