<svg width="50" height="50" viewBox="0 0 50 50" fill="none" xmlns="http://www.w3.org/2000/svg">
<g clip-path="url(#clip0)">
<path d="M24.6 0C11 0 0 11 0 24.6C0 38.2 11 49.2 24.6 49.2C38.2 49.2 49.2 38.2 49.2 24.6C49.2 11 38.2 0 24.6 0ZM37 19.7C37 20 37 20.2 37 20.5C37 28.7 30.8 38.2 19.3 38.2C15.8 38.2 12.5 37.2 9.8 35.4C10.3 35.5 10.8 35.5 11.3 35.5C14.2 35.5 16.9 34.5 19 32.8C16.3 32.7 14 31 13.2 28.5C13.6 28.6 14 28.6 14.4 28.6C15 28.6 15.5 28.5 16 28.4C13.2 27.8 11 25.3 11 22.3V22.2C11.8 22.7 12.8 22.9 13.8 23C12.1 21.9 11 20 11 17.8C11 16.7 11.3 15.6 11.8 14.7C14.9 18.5 19.4 20.9 24.6 21.2C24.5 20.7 24.4 20.3 24.4 19.8C24.4 16.4 27.2 13.6 30.6 13.6C32.4 13.6 34 14.4 35.1 15.6C36.5 15.3 37.8 14.8 39 14.1C38.5 15.6 37.6 16.8 36.3 17.5C37.6 17.3 38.8 17 39.9 16.5C39.3 17.7 38.2 18.8 37 19.7Z" fill="#77C7F2"/>
</g>
<defs>
<clipPath id="clip0">
<rect width="49.2" height="49.2" fill="white"/>
</clipPath>
</defs>
</svg>
