<svg width="611" height="798" viewBox="0 0 611 798" fill="none" xmlns="http://www.w3.org/2000/svg">
<path fill-rule="evenodd" clip-rule="evenodd" d="M450.209 630.507C446.249 635.416 443.867 641.654 443.839 648.452C443.774 664.354 456.612 677.298 472.513 677.363C488.415 677.429 501.359 664.591 501.424 648.689C501.452 641.891 499.122 635.633 495.202 630.692L554.789 630.936C556.445 630.943 557.794 629.606 557.801 627.949L557.94 594.152C552.666 599.705 545.202 603.154 536.94 603.12C521.038 603.055 508.2 590.111 508.266 574.209C508.331 558.308 521.275 545.47 537.177 545.535C545.439 545.569 552.874 549.08 558.102 554.675L558.242 520.497C558.249 518.84 556.911 517.491 555.255 517.485L497.396 517.247C501.606 512.264 504.155 505.829 504.183 498.796C504.249 482.894 491.411 469.95 475.509 469.885C459.607 469.819 446.663 482.657 446.598 498.559C446.569 505.593 449.065 512.048 453.233 517.066L394.515 516.824C392.858 516.818 391.509 518.155 391.503 519.812L391.368 552.636C396.498 548.021 403.293 545.224 410.737 545.255C426.639 545.32 439.477 558.264 439.411 574.166C439.346 590.067 426.402 602.905 410.501 602.84C403.057 602.809 396.284 599.957 391.193 595.3L391.061 627.264C391.054 628.921 392.392 630.269 394.049 630.276L450.209 630.507Z" fill="#0087C4"/>
<path fill-rule="evenodd" clip-rule="evenodd" d="M453.209 396.966C449.249 401.875 446.867 408.113 446.84 414.911C446.774 430.813 459.612 443.757 475.514 443.822C491.416 443.888 504.36 431.05 504.425 415.148C504.453 408.35 502.122 402.092 498.203 397.151L557.789 397.395C559.446 397.402 560.795 396.065 560.801 394.408L560.94 360.611C555.667 366.164 548.203 369.613 539.94 369.579C524.039 369.514 511.201 356.57 511.266 340.668C511.331 324.767 524.275 311.929 540.177 311.994C548.439 312.028 555.874 315.539 561.102 321.134L561.243 286.956C561.249 285.299 559.912 283.95 558.255 283.944L500.397 283.706C504.606 278.723 507.155 272.288 507.184 265.255C507.249 249.353 494.411 236.409 478.509 236.344C462.608 236.278 449.664 249.116 449.599 265.018C449.57 272.052 452.065 278.507 456.234 283.525L397.515 283.283C395.859 283.277 394.51 284.614 394.503 286.271L394.368 319.095C399.498 314.48 406.294 311.683 413.738 311.714C429.639 311.779 442.477 324.723 442.412 340.625C442.347 356.526 429.403 369.364 413.501 369.299C406.057 369.268 399.285 366.416 394.193 361.759L394.062 393.723C394.055 395.38 395.393 396.728 397.049 396.735L453.209 396.966Z" fill="#0087C4" fill-opacity="0.6"/>
<path fill-rule="evenodd" clip-rule="evenodd" d="M453.21 160.966C449.25 165.875 446.868 172.113 446.84 178.911C446.775 194.813 459.613 207.757 475.514 207.822C491.416 207.888 504.36 195.05 504.425 179.148C504.453 172.35 502.123 166.092 498.203 161.151L557.79 161.395C559.446 161.402 560.795 160.065 560.802 158.408L560.941 124.611C555.667 130.164 548.203 133.613 539.941 133.579C524.039 133.514 511.201 120.57 511.267 104.668C511.332 88.7665 524.276 75.9286 540.178 75.9939C548.44 76.0278 555.875 79.5385 561.103 85.1344L561.243 50.956C561.25 49.2991 559.912 47.9505 558.256 47.9437L500.397 47.706C504.607 42.7227 507.155 36.2884 507.184 29.2547C507.25 13.353 494.412 0.409114 478.51 0.343798C462.608 0.278483 449.664 13.1164 449.599 29.0182C449.57 36.0519 452.066 42.5069 456.234 47.5246L397.516 47.2834C395.859 47.2766 394.51 48.6143 394.504 50.2711L394.369 83.0951C399.499 78.48 406.294 75.683 413.738 75.7136C429.64 75.7789 442.478 88.7228 442.412 104.625C442.347 120.526 429.403 133.364 413.502 133.299C406.058 133.268 399.285 130.416 394.194 125.759L394.062 157.723C394.055 159.38 395.393 160.728 397.05 160.735L453.21 160.966Z" fill="#0087C4" fill-opacity="0.1"/>
<path fill-rule="evenodd" clip-rule="evenodd" d="M100.021 629.531C96.0606 634.441 93.679 640.679 93.6511 647.477C93.5858 663.379 106.424 676.323 122.325 676.388C138.227 676.453 151.171 663.615 151.236 647.713C151.264 640.915 148.934 634.658 145.014 629.716L204.601 629.961C206.257 629.968 207.606 628.63 207.613 626.973L207.752 593.176C202.478 598.729 195.014 602.179 186.752 602.145C170.85 602.079 158.012 589.135 158.078 573.234C158.143 557.332 171.087 544.494 186.989 544.559C195.251 544.593 202.686 548.104 207.914 553.7L208.054 519.521C208.061 517.865 206.723 516.516 205.067 516.509L147.208 516.271C151.418 511.288 153.967 504.854 153.995 497.82C154.061 481.918 141.223 468.975 125.321 468.909C109.419 468.844 96.4754 481.682 96.4101 497.584C96.3812 504.617 98.8768 511.072 103.045 516.09L44.3269 515.849C42.6701 515.842 41.3214 517.18 41.3146 518.837L41.1798 551.66C46.3097 547.045 53.1053 544.248 60.5491 544.279C76.4509 544.344 89.2888 557.288 89.2235 573.19C89.1582 589.092 76.2143 601.93 60.3126 601.864C52.8688 601.834 46.0963 598.981 41.0046 594.324L40.8733 626.288C40.8665 627.945 42.2041 629.294 43.8609 629.301L100.021 629.531Z" fill="#0087C4"/>
<path fill-rule="evenodd" clip-rule="evenodd" d="M103.021 395.991C99.0606 400.901 96.679 407.139 96.6511 413.937C96.5858 429.839 109.424 442.782 125.325 442.848C141.227 442.913 154.171 430.075 154.236 414.173C154.264 407.375 151.934 401.118 148.014 396.176L207.601 396.421C209.257 396.428 210.606 395.09 210.613 393.433L210.752 359.636C205.478 365.189 198.014 368.639 189.752 368.605C173.85 368.539 161.012 355.595 161.078 339.694C161.143 323.792 174.087 310.954 189.989 311.019C198.251 311.053 205.686 314.564 210.914 320.16L211.054 285.981C211.061 284.325 209.723 282.976 208.067 282.969L150.208 282.731C154.418 277.748 156.967 271.314 156.995 264.28C157.061 248.378 144.223 235.435 128.321 235.369C112.419 235.304 99.4754 248.142 99.4101 264.044C99.3812 271.077 101.877 277.532 106.045 282.55L47.3269 282.309C45.6701 282.302 44.3214 283.64 44.3146 285.296L44.1798 318.12C49.3097 313.505 56.1053 310.708 63.5491 310.739C79.4509 310.804 92.2888 323.748 92.2235 339.65C92.1582 355.552 79.2143 368.39 63.3126 368.324C55.8688 368.294 49.0963 365.441 44.0046 360.784L43.8733 392.748C43.8665 394.405 45.2041 395.754 46.8609 395.761L103.021 395.991Z" fill="#0087C4" fill-opacity="0.1"/>
<path fill-rule="evenodd" clip-rule="evenodd" d="M270.553 750.378C266.592 755.287 264.211 761.525 264.183 768.324C264.117 784.225 276.955 797.169 292.857 797.235C308.759 797.3 321.703 784.462 321.768 768.56C321.796 761.762 319.466 755.505 315.546 750.563L375.132 750.807C376.789 750.814 378.138 749.477 378.145 747.82L378.283 714.023C373.01 719.576 365.546 723.025 357.284 722.991C341.382 722.926 328.544 709.982 328.609 694.08C328.675 678.179 341.619 665.341 357.52 665.406C365.783 665.44 373.218 668.951 378.446 674.547L378.586 640.368C378.593 638.711 377.255 637.363 375.598 637.356L317.74 637.118C321.95 632.135 324.498 625.701 324.527 618.667C324.592 602.765 311.755 589.821 295.853 589.756C279.951 589.691 267.007 602.529 266.942 618.43C266.913 625.464 269.409 631.919 273.577 636.937L214.859 636.696C213.202 636.689 211.853 638.026 211.846 639.683L211.712 672.507C216.841 667.892 223.637 665.095 231.081 665.126C246.983 665.191 259.821 678.135 259.755 694.037C259.69 709.938 246.746 722.776 230.844 722.711C223.401 722.68 216.628 719.828 211.536 715.171L211.405 747.135C211.398 748.792 212.736 750.14 214.393 750.147L270.553 750.378Z" fill="#77C7F2"/>
<path fill-rule="evenodd" clip-rule="evenodd" d="M281.351 513.991C277.391 518.901 275.01 525.139 274.982 531.937C274.916 547.839 287.754 560.782 303.656 560.848C319.558 560.913 332.502 548.075 332.567 532.173C332.595 525.375 330.265 519.118 326.345 514.176L385.931 514.421C387.588 514.428 388.937 513.09 388.943 511.433L389.082 477.636C383.809 483.189 376.345 486.639 368.083 486.605C352.181 486.539 339.343 473.595 339.408 457.694C339.474 441.792 352.417 428.954 368.319 429.019C376.581 429.053 384.017 432.564 389.244 438.16L389.385 403.981C389.392 402.325 388.054 400.976 386.397 400.969L328.539 400.731C332.749 395.748 335.297 389.314 335.326 382.28C335.391 366.378 322.553 353.435 306.652 353.369C290.75 353.304 277.806 366.142 277.741 382.044C277.712 389.077 280.207 395.532 284.376 400.55L225.657 400.309C224.001 400.302 222.652 401.64 222.645 403.296L222.51 436.12C227.64 431.505 234.436 428.708 241.88 428.739C257.781 428.804 270.619 441.748 270.554 457.65C270.489 473.552 257.545 486.39 241.643 486.324C234.199 486.294 227.427 483.441 222.335 478.784L222.204 510.748C222.197 512.405 223.535 513.754 225.191 513.761L281.351 513.991Z" fill="#77C7F2"/>
<path fill-rule="evenodd" clip-rule="evenodd" d="M281.352 277.99C277.392 282.9 275.01 289.138 274.982 295.936C274.917 311.838 287.755 324.782 303.657 324.847C319.558 324.912 332.502 312.074 332.567 296.172C332.595 289.374 330.265 283.117 326.345 278.175L385.932 278.42C387.588 278.427 388.937 277.089 388.944 275.432L389.083 241.635C383.809 247.188 376.345 250.638 368.083 250.604C352.181 250.538 339.343 237.594 339.409 221.693C339.474 205.791 352.418 192.953 368.32 193.018C376.582 193.052 384.017 196.563 389.245 202.159L389.385 167.98C389.392 166.324 388.054 164.975 386.398 164.968L328.539 164.73C332.749 159.747 335.298 153.313 335.326 146.279C335.392 130.377 322.554 117.434 306.652 117.368C290.75 117.303 277.806 130.141 277.741 146.043C277.712 153.076 280.208 159.531 284.376 164.549L225.658 164.308C224.001 164.301 222.652 165.639 222.646 167.295L222.511 200.119C227.641 195.504 234.436 192.707 241.88 192.738C257.782 192.803 270.62 205.747 270.555 221.649C270.489 237.551 257.545 250.389 241.644 250.323C234.2 250.293 227.427 247.44 222.336 242.783L222.204 274.747C222.198 276.404 223.535 277.753 225.192 277.76L281.352 277.99Z" fill="#77C7F2" fill-opacity="0.2"/>
<path fill-rule="evenodd" clip-rule="evenodd" d="M270.803 609.341C270.9 593.439 283.87 580.627 299.771 580.724C315.673 580.822 328.485 593.791 328.388 609.693C328.339 617.562 325.139 624.675 319.991 629.841L379.411 630.204C381.068 630.214 382.419 628.879 382.43 627.223L382.621 596.008C387.595 600.228 394.024 602.789 401.058 602.832C416.959 602.929 429.929 590.117 430.026 574.216C430.124 558.314 417.312 545.345 401.41 545.247C394.377 545.204 387.917 547.687 382.891 551.845L383.087 519.772C383.097 518.115 381.762 516.764 380.105 516.754L318.841 516.379C325 521.698 328.879 529.581 328.825 538.356C328.728 554.258 315.758 567.07 299.856 566.973C283.955 566.875 271.143 553.906 271.24 538.004C271.294 529.228 275.268 521.394 281.492 516.15L219.367 515.77C217.711 515.76 216.359 517.095 216.349 518.752L216.148 551.575C211.066 546.908 204.299 544.042 196.855 543.996C180.954 543.899 167.984 556.711 167.887 572.612C167.79 588.514 180.602 601.484 196.503 601.581C203.947 601.626 210.748 598.843 215.887 594.238L215.692 626.203C215.682 627.859 217.016 629.211 218.673 629.221L278.953 629.59C273.868 624.361 270.755 617.21 270.803 609.341Z" fill="url(#paint0_radial)"/>
<path fill-rule="evenodd" clip-rule="evenodd" d="M450.941 492.929C451.038 477.027 464.008 464.215 479.91 464.312C495.811 464.41 508.623 477.379 508.526 493.281C508.478 501.15 505.277 508.263 500.129 513.429L559.549 513.792C561.206 513.802 562.558 512.467 562.568 510.81L562.759 479.596C567.734 483.816 574.163 486.377 581.196 486.42C597.098 486.517 610.067 473.705 610.164 457.804C610.262 441.902 597.45 428.933 581.548 428.835C574.515 428.792 568.055 431.275 563.029 435.433L563.225 403.36C563.235 401.703 561.9 400.352 560.244 400.342L498.979 399.967C505.139 405.286 509.017 413.169 508.963 421.944C508.866 437.846 495.896 450.658 479.995 450.561C464.093 450.463 451.281 437.494 451.378 421.592C451.432 412.816 455.406 404.981 461.63 399.738L399.506 399.358C397.849 399.348 396.497 400.683 396.487 402.34L396.286 435.163C391.204 430.496 384.437 427.63 376.994 427.584C361.092 427.487 348.122 440.299 348.025 456.2C347.928 472.102 360.74 485.071 376.641 485.169C384.085 485.214 390.886 482.431 396.025 477.826L395.83 509.79C395.82 511.447 397.155 512.799 398.811 512.809L459.091 513.177C454.006 507.949 450.893 500.798 450.941 492.929Z" fill="#30B5F0"/>
<path fill-rule="evenodd" clip-rule="evenodd" d="M450.942 256.929C451.039 241.027 464.008 228.215 479.91 228.312C495.812 228.41 508.624 241.379 508.526 257.281C508.478 265.15 505.278 272.263 500.129 277.429L559.55 277.792C561.207 277.802 562.558 276.467 562.568 274.81L562.759 243.596C567.734 247.816 574.163 250.377 581.196 250.42C597.098 250.517 610.068 237.705 610.165 221.804C610.262 205.902 597.45 192.933 581.549 192.835C574.515 192.792 568.055 195.275 563.029 199.433L563.226 167.36C563.236 165.703 561.901 164.352 560.244 164.342L498.98 163.967C505.139 169.286 509.017 177.169 508.964 185.944C508.866 201.846 495.897 214.658 479.995 214.561C464.093 214.463 451.282 201.494 451.379 185.592C451.432 176.816 455.407 168.981 461.631 163.738L399.506 163.358C397.849 163.348 396.498 164.683 396.488 166.34L396.287 199.163C391.205 194.496 384.438 191.63 376.994 191.584C361.093 191.487 348.123 204.299 348.026 220.2C347.928 236.102 360.74 249.071 376.642 249.169C384.086 249.214 390.887 246.431 396.026 241.826L395.83 273.79C395.82 275.447 397.155 276.799 398.812 276.809L459.091 277.177C454.007 271.949 450.893 264.798 450.942 256.929Z" fill="#30B5F0" fill-opacity="0.3"/>
<path fill-rule="evenodd" clip-rule="evenodd" d="M278.26 373.909C278.358 358.007 291.327 345.196 307.229 345.293C323.131 345.39 335.942 358.36 335.845 374.261C335.797 382.131 332.596 389.243 327.448 394.409L386.869 394.773C388.526 394.783 389.877 393.448 389.887 391.791L390.078 360.576C395.053 364.796 401.482 367.357 408.515 367.4C424.417 367.498 437.387 354.686 437.484 338.784C437.581 322.883 424.769 309.913 408.868 309.816C401.834 309.773 395.374 312.255 390.348 316.414L390.544 284.34C390.555 282.684 389.22 281.332 387.563 281.322L326.298 280.947C332.458 286.266 336.336 294.149 336.282 302.925C336.185 318.826 323.215 331.638 307.314 331.541C291.412 331.444 278.6 318.474 278.698 302.573C278.751 293.797 282.726 285.962 288.95 280.719L226.825 280.339C225.168 280.329 223.817 281.663 223.807 283.32L223.606 316.144C218.523 311.476 211.757 308.61 204.313 308.564C188.411 308.467 175.442 321.279 175.344 337.181C175.247 353.082 188.059 366.052 203.961 366.149C211.404 366.195 218.206 363.411 223.345 358.807L223.149 390.771C223.139 392.428 224.474 393.779 226.131 393.789L286.41 394.158C281.326 388.929 278.212 381.778 278.26 373.909Z" fill="#30B5F0" fill-opacity="0.3"/>
<path fill-rule="evenodd" clip-rule="evenodd" d="M103.26 488.929C103.358 473.027 116.327 460.215 132.229 460.312C148.131 460.41 160.942 473.379 160.845 489.281C160.797 497.15 157.596 504.263 152.448 509.429L211.869 509.792C213.526 509.802 214.877 508.467 214.887 506.81L215.078 475.596C220.053 479.816 226.482 482.377 233.515 482.42C249.417 482.517 262.387 469.705 262.484 453.804C262.581 437.902 249.769 424.933 233.868 424.835C226.834 424.792 220.374 427.275 215.348 431.433L215.544 399.36C215.555 397.703 214.22 396.352 212.563 396.342L151.298 395.967C157.458 401.286 161.336 409.169 161.282 417.944C161.185 433.846 148.215 446.658 132.314 446.561C116.412 446.463 103.6 433.494 103.698 417.592C103.751 408.816 107.726 400.981 113.95 395.738L51.8249 395.358C50.168 395.348 48.8167 396.683 48.8066 398.34L48.6058 431.163C43.5234 426.496 36.7567 423.63 29.313 423.584C13.4114 423.487 0.441742 436.299 0.344459 452.2C0.247177 468.102 13.0591 481.071 28.9607 481.169C36.4044 481.214 43.2056 478.431 48.3448 473.826L48.1492 505.79C48.1391 507.447 49.474 508.799 51.1308 508.809L111.41 509.177C106.326 503.949 103.212 496.798 103.26 488.929Z" fill="#30B5F0" fill-opacity="0.3"/>
<defs>
<radialGradient id="paint0_radial" cx="0" cy="0" r="1" gradientUnits="userSpaceOnUse" gradientTransform="translate(307.777 536.51) rotate(130.357) scale(94.2553 101.324)">
<stop stop-color="#0087C4"/>
<stop offset="1" stop-color="#054C6C"/>
</radialGradient>
</defs>
</svg>
