<svg width="1279" height="783" viewBox="0 0 1279 783" fill="none" xmlns="http://www.w3.org/2000/svg">
<circle cx="261.5" cy="261.5" r="260.5" stroke="#77C7F2" stroke-opacity="0.3" stroke-width="2"/>
<path d="M480 261.5C480 384.385 380.605 484 258 484C135.395 484 36 384.385 36 261.5C36 138.615 135.395 39 258 39C380.605 39 480 138.615 480 261.5Z" stroke="#77C7F2" stroke-opacity="0.09" stroke-width="2"/>
<mask id="mask0" mask-type="alpha" maskUnits="userSpaceOnUse" x="118" y="92" width="1161" height="691">
<rect x="118" y="92" width="1161" height="691" fill="#C4C4C4"/>
</mask>
<g mask="url(#mask0)">
<path d="M360.353 429.353C367.442 427.438 374.674 426.341 381.869 425.395C389.065 424.449 396.287 423.745 403.438 423.341C410.687 422.88 417.864 422.719 425.13 422.892C432.397 423.064 439.69 423.48 447 424.529C439.813 426.503 432.644 427.691 425.449 428.637C418.253 429.584 411.031 430.288 403.818 430.599C396.605 430.91 389.329 431.13 382.063 430.957C374.895 430.726 367.664 430.402 360.353 429.353Z" fill="#77C7F2"/>
<path d="M360.831 408.549C367.92 406.634 375.151 405.537 382.347 404.591C389.543 403.645 396.765 402.941 403.916 402.538C411.164 402.076 418.342 401.915 425.608 402.088C432.875 402.261 440.168 402.676 447.478 403.726C440.291 405.699 433.122 406.888 425.927 407.834C418.731 408.78 411.509 409.484 404.296 409.795C397.083 410.107 389.807 410.326 382.541 410.153C375.435 410.014 368.142 409.599 360.831 408.549Z" fill="#77C7F2"/>
<path d="M361.211 387.802C368.3 385.887 375.531 384.79 382.727 383.844C389.923 382.898 397.145 382.194 404.296 381.791C411.544 381.329 418.722 381.168 425.988 381.341C433.255 381.514 440.548 381.929 447.858 382.979C440.671 384.952 433.502 386.14 426.307 387.087C419.111 388.033 411.827 388.645 404.676 389.048C397.463 389.36 390.187 389.579 382.921 389.406C375.815 389.267 368.522 388.852 361.211 387.802Z" fill="#77C7F2"/>
<path fill-rule="evenodd" clip-rule="evenodd" d="M312.83 345.229C312.375 380.053 311.439 454.446 311.264 489.911C251.994 488.729 184.311 432.585 173.653 421.849C162.396 410.511 164.215 395.745 164.215 395.745L278.538 397.477L312.83 345.229Z" fill="#30B5F0" fill-opacity="0.5"/>
<path d="M178.406 238.727C167.152 248.293 162.719 260.622 165.544 272.096C198.754 271.601 276.514 272.735 276.514 272.735L313.078 326.5C313.078 326.5 310.739 498.372 311.331 508.987C311.862 519.51 313.79 526.617 326.51 520.432C394.079 487.654 467.372 469.004 528.368 494.098C589.328 519.341 1158.75 763.405 1158.75 763.405C1195.62 778.66 1238.68 762.861 1254.85 728.287C1271.12 693.655 1254.32 653.238 1217.51 638.075L601.928 416.184C540.967 390.941 466.604 335.769 409.207 261.808C351.971 187.881 254.505 174.91 178.406 238.727ZM447.519 443.964L362.697 444.987C355.617 445.089 349.757 439.688 349.653 433.04L349.225 378.837C349.12 372.189 354.876 366.683 361.956 366.58L446.779 365.558C453.858 365.455 459.718 370.857 459.823 377.505L460.25 431.708C460.355 438.356 454.599 443.862 447.519 443.964ZM1203.28 660.906C1225.56 670.043 1235.65 694.469 1225.84 715.302C1216.09 736.226 1190.08 745.714 1167.9 736.518C1145.72 727.322 1135.53 702.955 1145.34 682.122C1155.09 661.198 1181.01 651.768 1203.28 660.906Z" fill="url(#paint0_linear)" fill-opacity="0.5"/>
<path d="M1217.51 638.075L601.928 416.184C540.967 390.941 466.604 335.769 409.207 261.808C351.971 187.881 254.505 174.91 178.406 238.727C167.152 248.293 162.719 260.622 165.544 272.096M1217.51 638.075L1216.54 640.306C1216.56 640.313 1216.58 640.321 1216.59 640.328M1217.51 638.075C1254.32 653.238 1271.12 693.655 1254.85 728.287C1238.68 762.861 1195.62 778.66 1158.75 763.405C1158.75 763.405 589.328 519.341 528.368 494.098C467.372 469.004 394.079 487.654 326.51 520.432C313.79 526.617 311.862 519.51 311.331 508.987C310.739 498.372 313.078 326.5 313.078 326.5M1217.51 638.075L1216.65 640.35L1216.59 640.328M1216.59 640.328L601.069 418.458L601.01 418.437L600.951 418.413C539.51 392.97 464.793 337.491 407.157 263.222L407.155 263.22C378.928 226.762 340.888 205.452 300.646 201.032C260.411 196.613 217.714 209.052 180.134 240.564M1216.59 640.328C1252.01 654.95 1268.19 693.855 1252.5 727.251L1252.5 727.254C1236.88 760.647 1195.3 775.884 1159.75 761.184M180.134 240.564C180.136 240.562 180.138 240.56 180.14 240.558L178.406 238.727L180.128 240.569C180.13 240.567 180.132 240.565 180.134 240.564ZM180.134 240.564C170.1 249.096 165.985 259.72 167.634 269.632M167.634 269.632C166.884 269.641 166.153 269.651 165.442 269.662L165.544 272.096M167.634 269.632C167.744 270.29 167.879 270.945 168.039 271.596L165.544 272.096M167.634 269.632C184.45 269.427 210.867 269.583 233.447 269.795C245.246 269.906 256.007 270.032 263.818 270.131C267.723 270.18 270.891 270.223 273.083 270.253C274.179 270.268 275.031 270.28 275.609 270.288L276.267 270.297L276.435 270.3L276.478 270.3L276.488 270.301L276.491 270.301C276.492 270.301 276.492 270.301 276.514 272.735M165.544 272.096C198.754 271.601 276.514 272.735 276.514 272.735M276.514 272.735L276.492 270.301L277.89 270.321L278.657 271.449L315.222 325.214L315.652 325.846L315.641 326.59L313.078 326.5M276.514 272.735L313.078 326.5M313.078 326.5C315.641 326.59 315.641 326.591 315.641 326.592L315.641 326.598L315.641 326.621L315.64 326.714L315.635 327.083L315.615 328.522C315.598 329.784 315.573 331.635 315.542 333.995C315.479 338.715 315.39 345.47 315.285 353.609C315.075 369.887 314.801 391.702 314.546 413.848C314.034 458.224 313.601 503.712 313.891 508.916L313.892 508.929C314.023 511.527 314.236 513.786 314.646 515.638C315.064 517.525 315.631 518.713 316.26 519.396C316.773 519.952 317.455 520.323 318.732 520.298C320.154 520.27 322.263 519.735 325.299 518.259L325.301 518.258C393 485.417 467.215 466.31 529.339 491.867L529.344 491.869C559.844 504.499 717.463 571.836 867.427 636.002C942.416 668.088 1015.5 699.385 1069.84 722.66C1097 734.298 1119.49 743.93 1135.17 750.653C1143.02 754.015 1149.17 756.649 1153.35 758.443L1158.13 760.489L1159.35 761.013L1159.66 761.145L1159.73 761.177M1159.73 761.177L1159.74 761.179L1159.75 761.184M1159.73 761.177L1158.75 763.404C1159.76 761.19 1159.76 761.189 1159.75 761.187L1159.75 761.184M1159.73 761.177L1159.75 761.184M447.62 446.399L447.613 446.399L362.797 447.421C362.795 447.421 362.793 447.421 362.79 447.421C354.287 447.541 347.216 441.043 347.09 433.018L347.09 433.009L347.089 432.999L346.662 378.815C346.662 378.812 346.662 378.809 346.662 378.806C346.541 370.797 353.434 364.268 361.856 364.146L361.862 364.146L446.678 363.123C446.68 363.123 446.683 363.123 446.685 363.123M447.62 446.399L459.823 377.505C459.718 370.857 453.858 365.455 446.779 365.558L446.685 363.123M447.62 446.399C456.04 446.277 462.933 439.749 462.814 431.741L447.62 446.399ZM446.685 363.123C455.188 363.003 462.259 369.501 462.386 377.527L462.386 377.536L462.386 377.545L462.813 431.73L446.685 363.123ZM1228.18 716.336C1238.56 694.286 1227.89 668.37 1204.25 658.674C1180.68 649.005 1153.3 658.979 1143 681.084C1132.61 703.145 1143.4 728.993 1166.92 738.746C1190.41 748.485 1217.89 738.438 1228.18 716.336Z" stroke="#0087C4" stroke-opacity="0.2" stroke-width="5"/>
<path d="M172.576 273.413L134.497 333.806L171.065 394.73L245.82 395.197L283.899 334.805L247.331 273.88L172.576 273.413ZM245.112 354.015C233.427 372.644 207.744 378.909 188.03 367.975C168.209 357.104 161.639 333.058 173.393 314.53C185.078 295.901 210.76 289.636 230.474 300.571C250.296 311.441 256.865 335.488 245.112 354.015Z" fill="url(#paint1_radial)"/>
</g>
<defs>
<linearGradient id="paint0_linear" x1="314" y1="207.816" x2="491.802" y2="551.625" gradientUnits="userSpaceOnUse">
<stop offset="0.0627529" stop-color="#0087C4"/>
<stop offset="1" stop-color="#0087C4" stop-opacity="0.29"/>
</linearGradient>
<radialGradient id="paint1_radial" cx="0" cy="0" r="1" gradientUnits="userSpaceOnUse" gradientTransform="translate(209.564 333.839) rotate(-82.6226) scale(61.4087 58.3439)">
<stop stop-color="#0087C4"/>
<stop offset="1" stop-color="#77C7F2"/>
</radialGradient>
</defs>
</svg>
